<svg version="1.1" id="Layer_1" xmlns="http://www.w3.org/2000/svg" x="0" y="0" viewBox="0 0 224.93 300" style="enable-background:new 0 0 224.93 300" xml:space="preserve"><style>.st1{fill:url(#SVGID_00000018945685963051821550000005186642309562276751_)}.st2{fill:url(#SVGID_00000023269541550944727240000016317011118830196102_)}</style><linearGradient id="SVGID_1_" gradientUnits="userSpaceOnUse" x1="50.891" y1="177.247" x2="138.291" y2="25.865"><stop offset="0" style="stop-color:#ff471c"/><stop offset="1" style="stop-color:#fffb29"/></linearGradient><path d="M112.48 25c-51.37 0-93.09 41.32-93.73 92.53 9.46 28.72 29.39 43.27 59.28 43.27 4.14 0 8.02-.38 11.7-1.06-15.56-8.65-25.68-25.91-23.93-45.35 1.96-21.72 19.39-39.67 41.05-42.19 22.8-2.66 42.83 11.07 49.85 30.93 26.72 0 40.53-32.55 21.47-51.27C161.25 35.25 138.06 25 112.48 25z" style="fill:url(#SVGID_1_)"/><linearGradient id="SVGID_00000127007046464830392770000000091727897936385462_" gradientUnits="userSpaceOnUse" x1="77.347" y1="291.523" x2="139.608" y2="183.684"><stop offset="0" style="stop-color:#006"/><stop offset=".076" style="stop-color:#000a70"/><stop offset=".498" style="stop-color:#003ba1"/><stop offset=".819" style="stop-color:#005ac0"/><stop offset=".998" style="stop-color:#06c"/></linearGradient><path style="fill:url(#SVGID_00000127007046464830392770000000091727897936385462_)" d="M134.82 206.95c15.94-10.67 32.41-21.68 57.03-24.83C165.58 239.6 112.48 275 112.48 275s-25.95-17.3-50.55-47.36c5.08.97 10.46 1.45 16.1 1.45 23.71 0 39.77-10.76 56.79-22.14z"/><linearGradient id="SVGID_00000112628769093336797410000010311844177387174293_" gradientUnits="userSpaceOnUse" x1="55.047" y1="249.686" x2="138.787" y2="104.646"><stop offset="0" style="stop-color:#005e4c"/><stop offset=".281" style="stop-color:#338333"/><stop offset=".615" style="stop-color:#6aaa17"/><stop offset=".865" style="stop-color:#8cc306"/><stop offset="1" style="stop-color:#9c0"/></linearGradient><path style="fill:url(#SVGID_00000112628769093336797410000010311844177387174293_)" d="M206.19 122.11c-.43 18.22-4.38 35.23-10.43 50.78l-.03-.41c-29.59 2.49-48.93 15.43-66 26.85-16.51 11.05-30.77 20.59-51.69 20.59-9.41 0-17.92-1.48-25.4-4.41-14.49-20.24-27.2-45-31.93-73.24 15.56 22.32 38.68 27.69 57.33 27.69 23.71 0 39.78-10.75 56.78-22.12 18.89-12.64 38.43-25.72 71.37-25.73z"/></svg>