<?xml version="1.0" encoding="utf-8"?>
<!-- Generator: Adobe Illustrator 26.0.2, SVG Export Plug-In . SVG Version: 6.00 Build 0)  -->
<svg version="1.1" id="Layer_1" xmlns="http://www.w3.org/2000/svg" xmlns:xlink="http://www.w3.org/1999/xlink" x="0px" y="0px"
	 viewBox="0 0 224.93 300" style="enable-background:new 0 0 224.93 300;" xml:space="preserve">
<style type="text/css">
	.st0{fill:url(#SVGID_1_);}
	.st1{fill:url(#SVGID_00000018945685963051821550000005186642309562276751_);}
	.st2{fill:url(#SVGID_00000023269541550944727240000016317011118830196102_);}
</style>
<g>
	<linearGradient id="SVGID_1_" gradientUnits="userSpaceOnUse" x1="50.891" y1="177.2467" x2="138.2913" y2="25.865">
		<stop  offset="0" style="stop-color:#FF471C"/>
		<stop  offset="1" style="stop-color:#FFFB29"/>
	</linearGradient>
	<path class="st0" d="M112.48,25c-51.37,0-93.09,41.32-93.73,92.53c9.46,28.72,29.39,43.27,59.28,43.27c4.14,0,8.02-0.38,11.7-1.06
		c-15.56-8.65-25.68-25.91-23.93-45.35c1.96-21.72,19.39-39.67,41.05-42.19c22.8-2.66,42.83,11.07,49.85,30.93h0
		c26.72,0,40.53-32.55,21.47-51.27C161.25,35.25,138.06,25,112.48,25z"/>
	
		<linearGradient id="SVGID_00000127007046464830392770000000091727897936385462_" gradientUnits="userSpaceOnUse" x1="77.3468" y1="291.5226" x2="139.6076" y2="183.6836">
		<stop  offset="0" style="stop-color:#000066"/>
		<stop  offset="0.076" style="stop-color:#000A70"/>
		<stop  offset="0.4981" style="stop-color:#003BA1"/>
		<stop  offset="0.8185" style="stop-color:#005AC0"/>
		<stop  offset="0.9976" style="stop-color:#0066CC"/>
	</linearGradient>
	<path style="fill:url(#SVGID_00000127007046464830392770000000091727897936385462_);" d="M134.82,206.95
		c15.94-10.67,32.41-21.68,57.03-24.83C165.58,239.6,112.48,275,112.48,275s-25.95-17.3-50.55-47.36c5.08,0.97,10.46,1.45,16.1,1.45
		C101.74,229.09,117.8,218.33,134.82,206.95z"/>
	
		<linearGradient id="SVGID_00000112628769093336797410000010311844177387174293_" gradientUnits="userSpaceOnUse" x1="55.0475" y1="249.6865" x2="138.7867" y2="104.646">
		<stop  offset="0" style="stop-color:#005E4C"/>
		<stop  offset="0.2805" style="stop-color:#338333"/>
		<stop  offset="0.6148" style="stop-color:#6AAA17"/>
		<stop  offset="0.8648" style="stop-color:#8CC306"/>
		<stop  offset="1" style="stop-color:#99CC00"/>
	</linearGradient>
	<path style="fill:url(#SVGID_00000112628769093336797410000010311844177387174293_);" d="M206.19,122.11
		c-0.43,18.22-4.38,35.23-10.43,50.78l-0.03-0.41c-29.59,2.49-48.93,15.43-66,26.85c-16.51,11.05-30.77,20.59-51.69,20.59
		c-9.41,0-17.92-1.48-25.4-4.41c-14.49-20.24-27.2-45-31.93-73.24c15.56,22.32,38.68,27.69,57.33,27.69
		c23.71,0,39.78-10.75,56.78-22.12C153.71,135.2,173.25,122.12,206.19,122.11z"/>
</g>
</svg>
