<svg width="119" height="120" fill="none" xmlns="http://www.w3.org/2000/svg"><g clip-path="url(#a)"><path d="M59.5 119.485c32.86 0 59.5-26.639 59.5-59.5 0-32.86-26.64-59.5-59.5-59.5S0 27.125 0 59.985c0 32.861 26.64 59.5 59.5 59.5Z" fill="#F7931A"/><path d="M86.209 52.713c1.19-7.801-4.76-12.032-12.892-14.809l2.645-10.578-6.413-1.586-2.579 10.313c-1.718-.397-3.437-.793-5.156-1.256l2.578-10.38-6.413-1.586-2.644 10.578c-1.388-.331-2.777-.661-4.099-.992v-.066l-8.925-2.182-1.719 6.876s4.76 1.124 4.694 1.19c2.578.66 3.107 2.38 2.975 3.768L40.99 70.96c-.33.793-1.124 1.983-2.975 1.52.066.066-4.694-1.19-4.694-1.19l-3.173 7.339 8.396 2.115c1.52.397 3.107.793 4.561 1.19l-2.71 10.71 6.413 1.587 2.644-10.578c1.785.463 3.438.926 5.157 1.322l-2.645 10.512 6.413 1.587 2.645-10.644c10.974 2.115 19.238 1.256 22.742-8.66 2.776-8-.133-12.628-5.884-15.603 4.297-.926 7.47-3.702 8.33-9.454ZM71.466 73.34c-1.983 8-15.47 3.636-19.833 2.578l3.57-14.148c4.363 1.058 18.379 3.24 16.263 11.57Zm2.05-20.76c-1.852 7.273-13.024 3.57-16.66 2.645L60.094 42.4c3.57.925 15.272 2.644 13.42 10.18Z" fill="#fff"/></g><defs><clipPath id="a"><path fill="#fff" transform="translate(0 .485)" d="M0 0h119v119H0z"/></clipPath></defs></svg>