<svg width="72" height="73" fill="none" xmlns="http://www.w3.org/2000/svg"><rect x="1" y="1.485" width="70" height="70" rx="9" stroke="url(#a)" stroke-width="2"/><path d="m56.542 22.089-7.2 33.9c-.5 2.4-2 3-4 1.9l-11-8.1-5.3 5.1c-.6.6-1.1 1.1-2.2 1.1l.8-11.2 20.4-18.3c.9-.8-.2-1.2-1.4-.4l-25.1 15.8-10.8-3.4c-2.4-.7-2.4-2.4.5-3.5l42.3-16.3c1.9-.7 3.7.4 3 3.4Z" fill="url(#b)"/><defs><linearGradient id="a" x1="-26" y1="83.485" x2="94" y2="-20.515" gradientUnits="userSpaceOnUse"><stop stop-color="#FF7A20"/><stop offset="1" stop-color="#FFFB29"/></linearGradient><linearGradient id="b" x1="9" y1="71.485" x2="94" y2="-15.515" gradientUnits="userSpaceOnUse"><stop stop-color="#FF7A20"/><stop offset="1" stop-color="#FFFB29"/></linearGradient></defs></svg>