<svg width="72" height="73" fill="none" xmlns="http://www.w3.org/2000/svg"><rect x="1" y="1.485" width="70" height="70" rx="9" stroke="url(#a)" stroke-width="2"/><path fill-rule="evenodd" clip-rule="evenodd" d="M16.242 53.293c-1.8-.5-3.2-1.9-3.9-3.6-1.7-4.6-2.2-23.7 1-27.4 1-1.3 2.6-2.1 4.2-2.2 8.6-.9 35.3-.8 38.3.3 1.7.5 3.1 1.8 3.8 3.5 1.8 4.7 1.9 21.9-.2 26.5-.6 1.2-1.5 2.1-2.7 2.7-3.2 1.7-36.3 1.7-40.5.2Zm13.7-9 15.5-8.1-15.5-8.1v16.2Z" fill="url(#b)"/><defs><linearGradient id="a" x1="-26" y1="83.485" x2="94" y2="-20.515" gradientUnits="userSpaceOnUse"><stop stop-color="#FF7A20"/><stop offset="1" stop-color="#FFFB29"/></linearGradient><linearGradient id="b" x1="2" y1="54.485" x2="99" y2="1.485" gradientUnits="userSpaceOnUse"><stop stop-color="#FF7A20"/><stop offset="1" stop-color="#FFFB29"/></linearGradient></defs></svg>