<svg width="82" height="40" fill="none" xmlns="http://www.w3.org/2000/svg"><path d="M36.477 14.03c0-2.284 1.748-3.935 4.099-3.935 1.246 0 2.314.448 3.025 1.28l-.92.863a2.684 2.684 0 0 0-2.044-.896c-1.584 0-2.732 1.114-2.732 2.688 0 1.572 1.148 2.688 2.732 2.688.798 0 1.485-.297 2.044-.907l.92.873c-.711.828-1.782 1.28-3.038 1.28-2.338-.004-4.086-1.65-4.086-3.934ZM49.53 17.853l-1.564-2.24c-.097.01-.199.01-.296.01h-1.728v2.23H44.52v-7.647h3.146c2.011 0 3.254 1.028 3.254 2.719 0 1.158-.59 2.01-1.627 2.415l1.759 2.513h-1.523Zm-1.924-6.448h-1.66v3.049h1.66c1.246 0 1.89-.57 1.89-1.53.003-.96-.644-1.518-1.89-1.518ZM55.7 15.155v2.698H54.28v-2.678l-3.005-4.972h1.52l2.24 3.726 2.26-3.726h1.397l-2.99 4.952ZM65.917 12.925c0 1.684-1.247 2.721-3.258 2.721h-1.728v2.207H59.51v-7.647h3.146c2.014-.003 3.26 1.024 3.26 2.719Zm-1.432 0c0-.96-.643-1.52-1.89-1.52h-1.66v3.039h1.66c1.243 0 1.89-.556 1.89-1.52ZM68.665 11.405h-2.533v-1.202h6.491v1.203H70.09v6.447h-1.422v-6.448h-.003ZM72.815 14.03c0-2.26 1.748-3.935 4.12-3.935 2.371 0 4.12 1.66 4.12 3.934s-1.749 3.935-4.12 3.935c-2.372-.004-4.12-1.674-4.12-3.934Zm6.808 0c0-1.563-1.149-2.688-2.688-2.688-1.543 0-2.688 1.124-2.688 2.688 0 1.562 1.145 2.688 2.688 2.688 1.539 0 2.688-1.129 2.688-2.688ZM43.422 22.632c0 1.685-1.246 2.722-3.254 2.722H38.44v2.206H37.02v-7.646h3.146c2.014 0 3.257 1.027 3.257 2.718Zm-1.428 0c0-.96-.643-1.519-1.89-1.519h-1.66v3.039h1.66c1.243 0 1.89-.556 1.89-1.52ZM44.187 23.737c0-2.26 1.748-3.93 4.12-3.93 2.37 0 4.119 1.66 4.119 3.93 0 2.27-1.748 3.935-4.12 3.935-2.371 0-4.12-1.675-4.12-3.935Zm6.807 0c0-1.563-1.148-2.688-2.688-2.688-1.539 0-2.688 1.125-2.688 2.688 0 1.563 1.149 2.688 2.688 2.688 1.54 0 2.688-1.125 2.688-2.688ZM60.291 19.914v7.646h-1.168l-4.218-5.18v5.18h-1.408v-7.646h1.17l4.216 5.177v-5.177h1.408ZM63.892 21.113H61.36v-1.199h6.491v1.2h-2.533v6.446h-1.421v-6.447h-.004ZM74.654 26.371v1.19h-5.736v-7.647h5.581v1.19h-4.16v1.986h3.692v1.17H70.34v2.108h4.315v.003Z" fill="#fff"/><path d="M15 0C6.78 0 .104 6.612 0 14.808c1.516 4.594 4.706 6.922 9.489 6.922.663 0 1.283-.06 1.873-.169a7.501 7.501 0 0 1-3.77-7.734c.496-3.28 3.227-5.901 6.525-6.275a7.507 7.507 0 0 1 7.96 4.952c4.274 0 6.484-5.208 3.435-8.206A14.959 14.959 0 0 0 15 0Z" fill="url(#a)"/><path d="M18.577 29.113c2.55-1.707 5.184-3.47 9.125-3.974C23.498 34.337 15.002 40 15.002 40s-4.152-2.769-8.087-7.579a13.76 13.76 0 0 0 2.577.233c3.79.003 6.36-1.718 9.085-3.54Z" fill="url(#b)"/><path d="M29.996 15.539c-.07 2.913-.7 5.635-1.67 8.124l-.008-.064c-4.736.398-7.828 2.47-10.56 4.295-2.64 1.768-4.92 3.294-8.27 3.294-1.505 0-2.866-.236-4.065-.704-2.317-3.24-4.352-7.202-5.11-11.719 2.493 3.571 6.191 4.43 9.176 4.43 3.793 0 6.363-1.721 9.084-3.54 3.025-2.021 6.151-4.117 11.423-4.117Z" fill="url(#c)"/><defs><linearGradient id="a" x1="5.147" y1="24.36" x2="19.132" y2=".138" gradientUnits="userSpaceOnUse"><stop stop-color="#FF471C"/><stop offset="1" stop-color="#FFFB29"/></linearGradient><linearGradient id="b" x1="9.38" y1="42.645" x2="19.342" y2="25.39" gradientUnits="userSpaceOnUse"><stop stop-color="#006"/><stop offset=".076" stop-color="#000A70"/><stop offset=".498" stop-color="#003BA1"/><stop offset=".819" stop-color="#005AC0"/><stop offset=".998" stop-color="#06C"/></linearGradient><linearGradient id="c" x1="5.812" y1="35.951" x2="19.211" y2="12.744" gradientUnits="userSpaceOnUse"><stop stop-color="#005E4C"/><stop offset=".281" stop-color="#338333"/><stop offset=".615" stop-color="#6AAA17"/><stop offset=".865" stop-color="#8CC306"/><stop offset="1" stop-color="#9C0"/></linearGradient></defs></svg>