<svg width="36" height="37" fill="none" xmlns="http://www.w3.org/2000/svg"><path d="M8.571.485C3.857.485 0 4.342 0 9.057v18.857c0 4.714 3.857 8.571 8.571 8.571H27.43c4.714 0 8.571-3.857 8.571-8.571V9.057C36 4.342 32.143.485 27.429.485H8.57Zm0 1.715H27.43c3.771 0 6.857 3.085 6.857 6.857v18.857c0 3.771-3.086 6.857-6.857 6.857H8.57c-3.771 0-6.857-3.086-6.857-6.857V9.057C1.714 5.285 4.8 2.2 8.571 2.2Zm-.857 7.714c-1.371 0-2.571 1.2-2.571 2.571v12c0 1.372 1.2 2.572 2.571 2.572h20.572c1.371 0 2.571-1.2 2.571-2.572v-12c0-1.371-1.2-2.571-2.571-2.571H7.714Zm.343 1.714h19.886l-7.629 7.629a3.26 3.26 0 0 1-4.628 0l-7.629-7.629Zm21.086 1.2v11.314l-5.657-5.657 5.657-5.657Zm-22.286 0 5.657 5.657-5.657 5.657V12.828Zm15.429 6.857 5.657 5.658H8.057l5.657-5.658.772.772c1.971 1.971 5.057 1.971 7.028 0l.772-.772Z" fill="#fff"/></svg>