<svg width="57" height="75" fill="none" xmlns="http://www.w3.org/2000/svg"><path d="M28.116 0C12.71 0 .196 12.398 0 27.764c2.841 8.615 8.82 12.98 17.786 12.98 1.244 0 2.406-.114 3.511-.317-4.906-2.728-8.006-8.305-7.065-14.5.928-6.152 6.048-11.066 12.23-11.767 6.825-.783 12.817 3.335 14.92 9.284 8.012 0 12.154-9.764 6.44-15.385C42.745 3.076 35.794 0 28.116 0ZM34.821 54.587c4.78-3.202 9.718-6.505 17.105-7.452C44.046 64.383 28.122 75 28.122 75s-7.785-5.192-15.16-14.21a25.78 25.78 0 0 0 4.83.435c7.104.007 11.921-3.22 17.03-6.638Z" fill="#FF7A20"/><path d="M56.226 29.135c-.133 5.463-1.314 10.566-3.132 15.233l-.013-.12c-8.877.746-14.673 4.63-19.794 8.053-4.95 3.316-9.225 6.177-15.5 6.177-2.823 0-5.374-.442-7.622-1.32C5.821 51.082 2.008 43.655.587 35.185c4.672 6.695 11.605 8.306 17.2 8.306 7.109 0 11.926-3.228 17.028-6.638 5.67-3.79 11.53-7.718 21.41-7.718Z" fill="#FF7A20"/></svg>