<svg width="117" height="120" fill="none" xmlns="http://www.w3.org/2000/svg"><g clip-path="url(#a)"><path d="M58.5 119.485c32.309 0 58.5-26.639 58.5-59.5 0-32.86-26.191-59.5-58.5-59.5S0 27.125 0 59.985c0 32.861 26.191 59.5 58.5 59.5Z" fill="#fff"/><path d="M58.5.485C26.195.485 0 27.128 0 59.985c0 6.545 1.04 12.892 2.99 18.776h17.485V28.715L58.5 67.39l38.025-38.675V78.76h17.485c1.95-5.884 2.99-12.23 2.99-18.776 0-32.857-26.195-59.5-58.5-59.5Z" fill="#F60"/><path d="M49.725 76.315 33.15 59.39v31.47H8.515c10.27 17.188 28.795 28.625 49.985 28.625 21.19 0 39.715-11.437 49.985-28.56H83.85V59.39L67.275 76.25 58.5 85.174l-8.775-8.86Z" fill="#4C4C4C"/></g><defs><clipPath id="a"><path fill="#fff" transform="translate(0 .485)" d="M0 0h117v119H0z"/></clipPath></defs></svg>