<svg width="36" height="37" fill="none" xmlns="http://www.w3.org/2000/svg"><path d="M8.571.485C3.857.485 0 4.342 0 9.057v18.857c0 4.714 3.857 8.571 8.571 8.571H27.43c4.714 0 8.571-3.857 8.571-8.571V9.057C36 4.342 32.143.485 27.429.485H8.57Zm0 1.715H27.43c3.771 0 6.857 3.085 6.857 6.857v18.857c0 3.771-3.086 6.857-6.857 6.857H8.57c-3.771 0-6.857-3.086-6.857-6.857V9.057C1.714 5.285 4.8 2.2 8.571 2.2ZM12 6.485a5.484 5.484 0 0 0-3.943 1.372c-.428.428-.686.857-.943 1.2-.171.428-.343.771-.343 1.2v1.371c0 .772.172 1.8.515 3 .685 2.4 2.228 5.657 5.571 8.915 3.343 3.257 6.514 4.885 8.914 5.57 1.2.344 2.229.43 3 .515H26.143c.428 0 .771-.171 1.2-.343.428-.171.857-.514 1.2-.942.771-.858 1.457-2.143 1.371-3.943 0-.857-.514-1.543-1.2-2.057-.514-.343-1.371-.858-2.4-1.543-1.285-.772-2.828-.858-4.114-.172h.086l-1.029.429-.086.085c-.257.172-.514.172-.857.086-.771-.343-1.971-.943-3.085-2.057-1.115-1.114-1.715-2.314-2.058-3.086-.085-.257-.085-.6.086-.857l.086-.085.428-1.03v.087c.686-1.286.686-2.915-.171-4.115a72.657 72.657 0 0 0-1.543-2.4C13.63 7 12.857 6.571 12 6.485ZM12 8.2c.257 0 .514.171.686.428.343.514.857 1.372 1.543 2.4.428.686.514 1.629.085 2.4l-.428.943.085-.171c-.514.685-.6 1.628-.257 2.485.429.943 1.115 2.315 2.486 3.686 1.371 1.372 2.743 2.057 3.686 2.486.771.343 1.714.257 2.485-.257l-.171.085.943-.428c.771-.429 1.714-.343 2.4.085 1.114.686 1.886 1.2 2.4 1.543.257.172.428.429.428.686.086 1.286-.428 2.143-.942 2.657-.258.257-.515.429-.772.6-.257.172-.514.086-.428.086h-1.2c-.686 0-1.543-.172-2.658-.429-2.142-.6-5.057-1.971-8.228-5.142-3.172-3.172-4.543-6-5.143-8.23-.343-1.113-.429-1.97-.429-2.656v-1.2c0 .085 0-.172.172-.343.086-.257.343-.514.6-.771C9.857 8.627 10.629 8.2 12 8.2Z" fill="#fff"/></svg>