<svg xmlns="http://www.w3.org/2000/svg" xmlns:xlink="http://www.w3.org/1999/xlink" viewBox="0 0 590 380"><defs><linearGradient id="linear-gradient" x1="267.23" y1="471.5" x2="290.12" y2="227.21" gradientUnits="userSpaceOnUse"><stop offset="0" stop-color="#006"/><stop offset="1" stop-color="#06c"/></linearGradient><linearGradient id="linear-gradient-2" x1="422.89" y1="-144.89" x2="269.69" y2="202.27" gradientUnits="userSpaceOnUse"><stop offset="0" stop-color="#005e4c"/><stop offset="1" stop-color="#9c0"/></linearGradient><linearGradient id="linear-gradient-3" x1="293.54" y1="-12.85" x2="293.54" y2="160.95" gradientUnits="userSpaceOnUse"><stop offset="0" stop-color="#005e4c"/><stop offset=".05" stop-color="#0b6647"/><stop offset=".28" stop-color="#3d8a2e"/><stop offset=".5" stop-color="#65a71a"/><stop offset=".7" stop-color="#82bb0c"/><stop offset=".87" stop-color="#93c803"/><stop offset="1" stop-color="#9c0"/></linearGradient><linearGradient id="linear-gradient-4" x1="103.81" y1="178.64" x2="198.69" y2="178.64" gradientUnits="userSpaceOnUse"><stop offset="0" stop-color="#fff" stop-opacity="0"/><stop offset="1" stop-color="#fff"/></linearGradient><linearGradient id="linear-gradient-5" x1="293.49" y1="178.64" x2="388.38" y2="178.64" xlink:href="#linear-gradient-4"/><linearGradient id="linear-gradient-6" x1="388.38" y1="178.64" x2="483.27" y2="178.64" gradientUnits="userSpaceOnUse"><stop offset="0" stop-color="#006"/><stop offset="1" stop-color="#06c" stop-opacity="0"/></linearGradient><linearGradient id="linear-gradient-7" x1="507.23" y1="206.1" x2="431.89" y2="108.02" gradientUnits="userSpaceOnUse"><stop offset="0" stop-color="#ff471c"/><stop offset="1" stop-color="#fffb29"/></linearGradient><linearGradient id="linear-gradient-8" x1="317.49" y1="235.51" x2="242.15" y2="137.42" xlink:href="#linear-gradient-7"/><linearGradient id="linear-gradient-9" x1="217.54" y1="198.82" x2="142.19" y2="100.74" xlink:href="#linear-gradient-7"/><radialGradient id="radial-gradient" cx="291.67" cy="194.27" r="259.02" gradientTransform="matrix(1 0 0 .73 0 49.24)" gradientUnits="userSpaceOnUse"><stop offset="0" stop-color="#fffb29"/><stop offset="1" stop-color="#fffb29" stop-opacity="0"/></radialGradient><style>.cls-13{fill:#ff471c}.cls-12{fill:none;stroke:#fff}.cls-15{opacity:.2}.cls-12{stroke-linecap:round;stroke-linejoin:round;stroke-width:2px;stroke-dasharray:12 12}.cls-15{fill:#005e4c}</style></defs><g style="isolation:isolate"><g id="Layer_2" data-name="Layer 2"><path style="opacity:.5;fill:#ff471c" d="m97.03 332.11 98.26-25.16 98.15 25.16 98.25-25.16 98.25 25.16V107.49l-98.25-25.17-98.2 25.16-98.2-25.16-98.26 25.17v224.62z"/><ellipse cx="295.06" cy="190" rx="260.05" ry="190" style="fill:url(#radial-gradient)"/><path style="stroke-miterlimit:10;stroke-width:30px;fill:none;stroke:#fff" d="m103.81 299.26 94.88-24.3 94.8 24.3 94.89-24.3 94.88 24.3V82.33l-94.88-24.31-94.84 24.3-94.85-24.3-94.88 24.31v216.93z"/><path style="fill:url(#linear-gradient)" d="m388.38 58.02-94.84 24.3-94.85-24.3-94.88 24.31v216.93l94.88-24.3 94.8 24.28v.02l.05-.01.03.01v-.02l94.81-24.28 94.88 24.3V82.33l-94.88-24.31z"/><path d="M483.27 82.33v131.79c-18.64 10.88-39.69 15.88-51.72 6.73-20.55-15.67 4.87-32.37-14.77-66.85-8.63-15.13-19-11.54-28.4-.69-12.05 13.85-22.59 39.54-26.1 53.15-6.27 24.26-25.22 3.25-52.39-4.43-6.52-1.84-11.82-1.56-16.32.08h-.08c-18.36 6.76-23.08 36.16-40.86 35.39-20.9-.89-40-11.88-53.94-33a107.07 107.07 0 0 1-6.27-10.91c-14.09-28.19-30.63-12.53-69.27 25.07-7 6.81-13.46 10-19.34 10.53v-147L198.69 58l94.85 24.3L388.38 58Z" style="fill:url(#linear-gradient-2)"/><path d="M483.27 82.33v59.5c-18.64 10.85-31.51 15.14-43.54 6-20.54-15.67-3.31-31.61-23-66.06-8.63-15.13-19 7.21-28.4 18-12.05 13.85-42.51.91-26.1 34.41C373 156 328 168.86 309.16 147.79c-7.46-8.35-11.09-19.6-15.59-17.95h-.08c-69.29-3.75-61.69 94.62-105.74 33.58-18.44-25.56-26-54.58-64.6-17-7 6.82-13.46 9.95-19.34 10.53V82.33L198.69 58l94.85 24.3L388.38 58Z" style="fill:url(#linear-gradient-3)"/><path style="fill:url(#linear-gradient-4);opacity:.2;mix-blend-mode:lighten" d="M198.69 58.02v216.94l-94.88 24.3V82.33l94.88-24.31z"/><path style="mix-blend-mode:multiply;fill:#006;opacity:.2" d="M293.57 82.33v216.93l-.03-.01-.05-.01-94.8-24.28V58.02l94.85 24.3.03.01z"/><path style="fill:url(#linear-gradient-5);opacity:.2;mix-blend-mode:lighten" d="M388.38 58.02v216.94l-94.81 24.28-.03.01-.05.01V82.33l.05-.01 94.84-24.3z"/><path style="fill:url(#linear-gradient-6);mix-blend-mode:multiply;opacity:.2" d="M483.26 82.33v216.93l-94.88-24.3V58.02l94.88 24.31z"/><path class="cls-12" d="M103.81 170.88s78.86 29.25 84.5-38.53c4.56-54.69 29.56 20.88 64.1 42.49s114.78-11.84 88.52-44.05S355.18 58 355.18 58l33.2-10.37L424.64 58s-46.59 49 62.47 130.12"/><path class="cls-13" d="M442.15 92.34a25.37 25.37 0 0 0-25.35 25.36c0 26 25.35 42.2 25.35 42.2s25.36-16.42 25.36-42.2a25.37 25.37 0 0 0-25.36-25.36Zm0 36a10.63 10.63 0 1 1 10.64-10.62 10.62 10.62 0 0 1-10.64 10.6Z"/><path d="M439.73 89.92a25.36 25.36 0 0 0-25.35 25.36c0 26 25.35 42.2 25.35 42.2s25.35-16.42 25.35-42.2a25.35 25.35 0 0 0-25.35-25.36Zm0 36a10.63 10.63 0 1 1 10.64-10.62 10.62 10.62 0 0 1-10.64 10.6Z" style="fill:url(#linear-gradient-7)"/><ellipse class="cls-15" cx="442.16" cy="170.73" rx="11.95" ry="7.44"/><path class="cls-13" d="M252.41 121.75a25.36 25.36 0 0 0-25.35 25.35c0 26 25.35 42.21 25.35 42.21s25.35-16.43 25.35-42.21a25.35 25.35 0 0 0-25.35-25.35Zm0 36a10.64 10.64 0 1 1 10.64-10.63 10.63 10.63 0 0 1-10.64 10.61Z"/><path d="M250 119.32a25.37 25.37 0 0 0-25.35 25.36c0 26 25.35 42.2 25.35 42.2s25.35-16.42 25.35-42.2A25.36 25.36 0 0 0 250 119.32Zm0 36a10.64 10.64 0 1 1 10.63-10.63A10.63 10.63 0 0 1 250 155.31Z" style="fill:url(#linear-gradient-8)"/><ellipse class="cls-15" cx="252.41" cy="200.13" rx="11.95" ry="7.44"/><path class="cls-13" d="M152.46 85.06a25.35 25.35 0 0 0-25.35 25.36c0 26 25.35 42.2 25.35 42.2s25.35-16.42 25.35-42.2a25.35 25.35 0 0 0-25.35-25.36Zm0 36a10.63 10.63 0 1 1 10.63-10.62A10.62 10.62 0 0 1 152.46 121Z"/><path d="M150 82.64A25.35 25.35 0 0 0 124.69 108c0 26 25.35 42.2 25.35 42.2s25.35-16.42 25.35-42.2A25.35 25.35 0 0 0 150 82.64Zm0 36A10.63 10.63 0 1 1 160.67 108 10.63 10.63 0 0 1 150 118.62Z" style="fill:url(#linear-gradient-9)"/><ellipse class="cls-15" cx="152.46" cy="163.45" rx="11.95" ry="7.44"/><path class="cls-12" d="M173.07 58s4 40.49 44 34.32 45.31-27.62 58.23-21.41"/></g></g></svg>