<svg xmlns="http://www.w3.org/2000/svg" xmlns:xlink="http://www.w3.org/1999/xlink" viewBox="0 0 590 380"><defs><linearGradient id="linear-gradient" x1="129.9" y1="185.52" x2="342.52" y2="185.52" gradientUnits="userSpaceOnUse"><stop offset="0" stop-color="#006" stop-opacity="0"/><stop offset=".19" stop-color="#006" stop-opacity=".25"/><stop offset=".55" stop-color="#006" stop-opacity=".66"/><stop offset=".83" stop-color="#006" stop-opacity=".91"/><stop offset="1" stop-color="#006"/></linearGradient><linearGradient id="linear-gradient-2" x1="434.73" y1="85.51" x2="137.92" y2="479.2" gradientUnits="userSpaceOnUse"><stop offset="0" stop-color="#fff"/><stop offset=".98" stop-color="#6678ff"/></linearGradient><linearGradient id="linear-gradient-3" x1="500.9" y1="80.64" x2="205.08" y2="473.01" xlink:href="#linear-gradient-2"/><style>.cls-2,.cls-5{fill:#006}.cls-2{opacity:.5}.cls-3{fill:#6678ff}.cls-7{fill:none;stroke:#ff471c;stroke-linecap:round;stroke-linejoin:round;stroke-width:3px}</style></defs><g style="isolation:isolate"><g id="Layer_2" data-name="Layer 2"><path class="cls-2" d="M146.25 94.05h214.01v214.01H146.25z"/><path class="cls-3" d="M195.82 86.53h.21v.22h-.21zM225.11 86.53h.21v.22h-.21zM232.43 86.53h.22v.22h-.22zM247.08 79.21h7.54v7.54h-7.54zM269.06 86.54h.21v.21h-.21zM276.38 86.54h.22v.21h-.22z"/><path class="cls-3" d="M283.92 79.21v22.2h-7.54V86.76h.22v-.22h-.22v.22h-7.11v-.22h-.21v-7.33h14.86z"/><path class="cls-3" d="M276.38 86.54h.22v.21h-.22zM195.82 86.53h.21v.22h-.21zM195.82 93.86h.21v.21h-.21z"/><path class="cls-3" d="M195.82 86.53h.21v.22h-.21zM195.82 93.86h.21v.21h-.21zM203.14 93.86h.22v.21h-.22zM210.47 93.86h.21v.21h-.21zM217.78 93.86h.22v.21h-.22z"/><path class="cls-3" d="M217.78 93.86h.22v.21h-.22zM225.11 86.53h.21v.22h-.21z"/><path class="cls-3" d="M225.11 86.53h.21v.22h-.21zM232.43 86.53h.22v.22h-.22zM232.43 93.86h.22v.21h-.22z"/><path class="cls-3" d="M232.43 86.53h.22v.22h-.22zM232.43 93.86h.22v.21h-.22zM247.08 86.53h.22v.22h-.22zM254.41 86.54h.21v.21h-.21zM261.73 93.86h.22v.22h-.22z"/><path class="cls-3" d="M269.27 86.76v14.65h-7.32v-.22h-.22v-7.1h.22v-.23h-.22v.23h-7.32v-7.33h.22v-.22h14.43v.22h.21z"/><path class="cls-3" d="M261.73 93.86h.22v.22h-.22zM269.06 86.54h.21v.21h-.21zM276.38 86.54h.22v.21h-.22zM195.82 93.86h.21v.21h-.21zM195.82 101.18h.21v.22h-.21zM203.14 93.86h.22v.21h-.22zM203.14 101.18h.22v.22h-.22z"/><path class="cls-3" d="M203.14 93.86h.22v.21h-.22zM203.14 101.18h.22v.22h-.22zM210.47 93.86h.21v.21h-.21zM210.47 101.18h.21v.22h-.21z"/><path class="cls-3" d="M210.47 93.86h.21v.21h-.21zM210.47 101.18h.21v.22h-.21zM217.78 93.86h.22v.21h-.22zM232.43 93.86h.22v.21h-.22zM232.43 101.18h.22v.22h-.22zM247.08 101.19h.22v.21h-.22zM261.73 93.86h.22v.22h-.22zM261.73 101.19h.22v.21h-.22zM195.82 101.18h.21v.22h-.21z"/><path class="cls-3" d="M195.82 101.18h.21v.22h-.21zM203.14 101.18h.22v.22h-.22zM203.14 108.51h.22v.21h-.22zM210.47 101.18h.21v.22h-.21zM210.47 108.51h.21v.21h-.21zM217.78 108.51h.22v.21h-.22zM225.11 108.51h.21v.21h-.21zM232.43 101.18h.22v.22h-.22zM232.43 108.51h.22v.21h-.22z"/><path class="cls-3" d="M232.43 101.18h.22v.22h-.22zM232.43 108.51h.22v.21h-.22zM239.76 108.51h.21v.21h-.21z"/><path class="cls-3" d="M239.76 108.51h.21v.21h-.21zM247.08 101.19h.22v.21h-.22zM247.08 108.51h.22v.21h-.22z"/><path class="cls-3" d="M247.08 101.19h.22v.21h-.22zM247.08 108.51h7.54v.22h-7.54z"/><path class="cls-3" d="M261.73 101.4v-.21h-14.42v.21h-.23v-.21h.23V86.75h-.23v-.22h-14.42v.22h-.23v-.22h.23v-7.32h-7.55v7.32h.22v.22h-.22v-.22h-14.64v7.33h.21v.21h-.21v-.21h-7.11v.21h-.22v-.21h.22V79.21h-7.54v7.32h.18v.22h-.21v-.22h-7.33v7.54h7.33v-.21h.21v.21h-.21v7.11h.21v.22h-.21v-.22h-7.33v7.54h14.65v-.21h.22v-7.11h-.22v-.22h.22v.22h7.11v-.22h.21v.22h-.21v7.11h.21v.21h7.1v-.21h.25V94.07h-.23v-.21h.23v.21h14.42v-.21h.23v.21h-.23v7.11h.23v.22h-.23v-.22h-7.32v7.33h.22v.21h7.1v-.21h.23v.21h-.23v7.11h.23v.22h7.1v-.22h.25v-7.11h-.22v-.21h.22v.21h7.1v-.21h7.55v.22h7.1v-.22h.25v-7.11Z"/><path class="cls-3" d="M254.41 108.51h.21v.22h-.21zM261.73 101.19h.22v.21h-.22zM261.73 108.51h.22v.22h-.22zM210.68 108.73v21.98h-7.54v-21.98h.22v-.21h7.11v.21h.21z"/><path class="cls-3" d="M203.14 108.51h.22v.21h-.22zM210.47 108.51h.21v.21h-.21zM217.78 108.51h7.54v7.54h-7.54zM232.43 108.51h.22v.21h-.22zM232.43 115.83h.22v.22h-.22zM239.76 108.51h.21v.21h-.21zM239.76 115.83h.21v.22h-.21zM247.08 108.51h7.54v7.54h-7.54zM261.73 108.51h.22v.22h-.22zM261.73 115.84h.22v.21h-.22zM269.06 115.84h.21v.21h-.21z"/><path class="cls-3" d="M269.06 115.84h.21v.21h-.21zM188.49 115.83h7.54v14.87h-7.54zM225.11 115.83h7.54v7.54h-7.54zM239.76 115.83h7.54v7.54h-7.54zM254.41 115.84h.21v.21h-.21zM254.41 123.16h.21v.22h-.21zM261.73 115.84h.22v.21h-.22zM261.73 123.16h.22v.22h-.22z"/><path class="cls-3" d="M261.73 115.84h.22v.21h-.22zM261.73 123.16h.22v.22h-.22zM269.06 115.84h.21v.21h-.21zM225.11 123.16h.21v.21h-.21zM232.44 123.16h7.54v7.54h-7.54zM247.08 123.16h7.54v7.54h-7.54z"/><path class="cls-3" d="M283.92 108.51v7.54h-14.65v-.21h-.21v.21h.21v14.44h-.21v.21h-7.33v-7.32h.22v-.22h-.22v.22h-7.1v-.22h-.22v-7.11h.22v-.21h7.1v.21h.22v-.21h-.22v-7.11h.22v-.22h21.97z"/><path class="cls-3" d="M261.73 123.16h.22v.22h-.22zM269.06 130.49h.21v.21h-.21zM276.38 130.49h.22v.21h-.22zM225.11 137.81h.21v.22h-.21zM239.76 130.49h7.54v7.54h-7.54z"/><path class="cls-3" d="M269.06 130.49h.21v.21h-.21zM276.38 130.49h.22v.21h-.22zM276.38 137.81h.22v.22h-.22z"/><path class="cls-3" d="M276.38 130.49h.22v.21h-.22zM276.38 137.81h.22v.22h-.22zM283.7 137.81h.22v.22h-.22zM144.55 145.14h.21v.21h-.21z"/><path class="cls-3" d="M144.55 145.14h.21v.21h-.21zM151.87 145.14h.22v.21h-.22z"/><path class="cls-3" d="M151.87 145.14h.22v.21h-.22zM159.2 145.14h.21v.21h-.21z"/><path class="cls-3" d="M159.2 145.14h.21v.21h-.21zM166.52 145.14h.22v.21h-.22zM173.85 145.14h.21v.21h-.21zM181.17 145.14h.22v.21h-.22z"/><path class="cls-3" d="M181.17 145.14h.22v.21h-.22zM188.49 145.14h.22v.21h-.22z"/><path class="cls-3" d="M188.49 145.14h.22v.21h-.22zM195.82 145.14h.21v.21h-.21z"/><path class="cls-3" d="M195.82 145.14h.21v.21h-.21zM203.14 145.14h.22v.21h-.22z"/><path class="cls-3" d="M239.76 189.3v-.22h.24v.22h14.65V182h-.22v-.23h.22v.23h21.75v-.22h.22v-14.45h-.22v-.23h.22v.23h14.64v-7.55h-22.2v14.64h.21v.23h-.21v-.23H262v.23h-.23v-.23h.23v-7.32h-7.33v.23h-.22v-.23h.22v-21.75h-.22v-.21h.22v.21h7.1v-.21h.23v-7.33h-14.69v.19h-7.55v-.22h-14.43v.22h-.22v-.22h.22v-14.41h-.22v-.21h-7.33v22.19h14.65v-.21h.23v.21h-.23V160h7.33v-.22h.24v.22h-.22v7.1h.22v.23h-.22v-.23H218v.23h-.23v-.23h.23V160h-.23v-.22h.23v.22h7.32v-7.55h-14.85v7.33h.21v.22h-.21v-.22h-7.11v.22h-.22v-.22h.22v-14.43h-.22v-.21h.22v.21h7.32v-7.54h-36.83v7.33h.21v.21h7.11v-.21h.22v.21h-.22v7.1h.22v.23h-.22v-.23h-7.11v.23h-.21V160h7.32v-.22h.22v.22h-.22v7.1h.22v.23h-.22v-.23h-14.43v.23h-.22v-.23h.22v-14.42h-.22v-.23h.22v.23h7.11v-.23h.21v-7.1h-.21v-.21h-7.11v.21h-.22v-.21h.22v-7.33H129.9v7.54h14.65v-.21h.22v.21h-.22v7.33h7.54v-7.33h-.22v-.21h.22v.21h7.11v-.21h.21v.21h-.21v14.43h.21v.22h-.21v-.22h-7.33v7.55h7.33v-.23h.21v.23h-.21v7.32h22v-.22h.22v.22h-.22v7.1h.22v.25h14.43v-.23h.15v-7.1h-.21v-.22h.21v.22h7.11v-.22h.22v-7.1h-.22v-.23h.22v.23h7.11v-.23h.21v.23h-.21v7.1h.21v.22h7.1v-.22h7.55v.22h21.75v-.22h.23v.22h-.23v7.1h.23v.23h-.23v-.23h-14.62v14.63h.23v.23h-.23v-.23h-7.1v.23h-.22v7.31h22v-.21h.23v.21h-.23v7.11h.23v.22h-.23v-.22h-14.68v7.54h29.3v-.22h.27v-7.11h-.23v-.21h.23v.21h21.7v-.21h.22v-7.33h-14.65v.22h-.21v-.22h.21v-14.65h-7.54v7.33h.27v.21h-.23v-.21H240v.23h-.22v-.23h.22v-7.1Zm-43.73-44h-.21v7.1h.18v.23h-.21v-.23h-7.11v.23h-.22v-.23h.22v-7.1h-.22v-.21h.22v.21h7.11v-.21h.21Z"/><path class="cls-3" d="M203.14 145.14h.22v.21h-.22zM225.11 137.81h.21v.22h-.21z"/><path class="cls-3" d="M225.11 137.81h.21v.22h-.21zM232.43 145.14h.22v.21h-.22z"/><path class="cls-3" d="M232.43 145.14h.22v.21h-.22zM239.76 137.81h.21v.22h-.21z"/><path class="cls-3" d="M239.76 137.81h7.54v.22h-7.54z"/><path class="cls-3" d="M247.08 137.81h.22v.22h-.22zM254.41 145.14h.21v.21h-.21z"/><path class="cls-3" d="M254.41 145.14h.21v.21h-.21zM261.73 145.14h.22v.21h-.22zM276.38 137.81h.22v.22h-.22zM276.38 145.14h.22v.21h-.22zM283.7 137.81h.22v.22h-.22zM283.7 145.14h.22v.21h-.22z"/><path class="cls-3" d="M283.7 137.81h.22v.22h-.22zM283.7 145.14h.22v.21h-.22zM291.03 145.14h.21v.21h-.21zM298.35 137.81h7.54v7.54h-7.54zM313 137.81h7.54v7.54H313zM327.65 137.81h7.54v7.54h-7.54zM144.55 145.14h.21v.21h-.21zM151.87 145.14h.22v.21h-.22zM159.2 145.14h.21v.21h-.21zM166.52 145.14h.22v.21h-.22zM166.52 152.45h.22v.22h-.22z"/><path class="cls-3" d="M166.52 145.14h.22v.21h-.22zM166.52 152.45h.22v.22h-.22zM173.85 145.14h.21v.21h-.21zM173.85 152.45h.21v.22h-.21zM181.17 145.14h.22v.21h-.22zM181.17 152.45h.22v.22h-.22zM188.49 145.14h.22v.21h-.22zM188.49 152.45h.22v.22h-.22zM195.82 145.14h.21v.21h-.21zM195.82 152.45h.21v.22h-.21zM203.14 145.14h.22v.21h-.22zM232.43 145.14h.22v.21h-.22zM254.41 145.14h.21v.21h-.21zM291.24 137.81v7.32h-.21v.22h-7.11v-.22h-.22v.22h.22v7.33h-22.19v-7.33h.22v-.22h14.43v.22h.22v-.22h-.22v-7.1h.22v-.22h-.22v.22h-7.32v-7.33h.21v-.21h7.11v.21h.22v-.21h-.22v-7.33h7.54v14.65h-.22v.22h.22v-.22h7.32z"/><path class="cls-3" d="M261.73 145.14h.22v.21h-.22zM276.38 145.14h.22v.21h-.22z"/><path class="cls-3" d="M276.38 145.14h.22v.21h-.22zM283.7 145.14h.22v.21h-.22zM327.87 167.33v7.32h-14.65v-.23H313v-7.09h.22v-.23H313v.23h-7.11v-.23h-.21v-14.42h.21v-.23h-.21v.23h-14.65v-7.33h.21v-.22h7.11v.22h7.54v-.22H313v.22h.22v14.43H313v.22h.22v-.22h7.32v7.32h-.21v.23h.21v-.23h7.1v.23h.23z"/><path class="cls-3" d="M291.03 145.14h.21v.21h-.21zM298.35 145.14h.22v.21h-.22z"/><path class="cls-3" d="M298.35 145.14h7.54v.21h-7.54zM305.68 152.45h.21v.22h-.21z"/><path class="cls-3" d="M305.68 145.14h.21v.21h-.21zM305.68 152.45h.21v.22h-.21zM313 145.14h.22v.21H313zM334.97 145.13h7.54v7.54h-7.54zM137.45 152.45v14.65h-.23v.23h-7.32v-14.88h7.55zM159.2 159.78h.21v.21h-.21zM166.52 152.45h.22v.22h-.22zM173.85 152.45h.21v.22h-.21zM181.17 152.45h.22v.22h-.22zM181.17 159.78h.22v.21h-.22z"/><path class="cls-3" d="M181.17 152.45h.22v.22h-.22zM181.17 159.78h.22v.21h-.22zM188.49 152.45h.22v.22h-.22z"/><path class="cls-3" d="M188.49 152.45h.22v.22h-.22zM195.82 152.45h.21v.22h-.21z"/><path class="cls-3" d="M195.82 152.45h.21v.22h-.21zM203.14 159.78h.22v.21h-.22zM210.47 159.78h.21v.21h-.21zM217.78 159.78h.22v.21h-.22z"/><path class="cls-3" d="M217.78 159.78h.22v.21h-.22zM305.68 152.45h.21v.22h-.21zM313 159.78h.22v.21H313zM137.22 167.1h.22v.22h-.22zM159.2 159.78h.21v.21h-.21zM159.2 167.1h.21v.22h-.21z"/><path class="cls-3" d="M159.2 159.78h.21v.21h-.21zM159.2 167.1h.21v.22h-.21zM166.52 167.1h.22v.22h-.22zM181.17 159.78h.22v.21h-.22zM181.17 167.1h.22v.22h-.22zM203.14 159.78h.22v.21h-.22zM203.14 167.1h.22v.22h-.22z"/><path class="cls-3" d="M203.14 159.78h.22v.21h-.22zM203.14 167.1h.22v.22h-.22zM210.47 159.78h.21v.21h-.21zM210.47 167.1h.21v.22h-.21z"/><path class="cls-3" d="M210.47 167.1h.21v.22h-.21zM210.47 159.78h.21v.21h-.21zM217.78 159.78h.22v.21h-.22zM217.78 167.1h.22v.22h-.22zM239.76 167.1h.21v.22h-.21zM254.41 167.1h.21v.22h-.21zM276.38 167.1h.22v.22h-.22z"/><path class="cls-3" d="M276.38 167.1h.22v.22h-.22zM305.68 167.1h.21v.22h-.21zM313 159.78h.22v.21H313zM313 167.1h.22v.22H313z"/><path class="cls-3" d="M313 159.78h.22v.21H313zM313 167.1h.22v.22H313zM320.33 167.1h.21v.22h-.21zM327.64 159.78h7.54v7.54h-7.54zM137.22 167.1h7.54v7.54h-7.54zM159.2 167.1h.21v.22h-.21zM166.52 167.1h.22v.22h-.22z"/><path class="cls-3" d="M166.52 167.1h.22v.22h-.22zM181.17 167.1h.22v.22h-.22zM181.17 174.43h.22v.21h-.22z"/><path class="cls-3" d="M181.17 167.1h.22v.22h-.22zM181.17 174.43h.22v.21h-.22zM195.82 174.43h.21v.21h-.21z"/><path class="cls-3" d="M195.82 174.43h.21v.21h-.21zM203.14 167.1h.22v.22h-.22zM203.14 174.43h.22v.21h-.22zM210.47 167.1h.21v.22h-.21zM210.47 174.43h.21v.21h-.21zM217.78 167.1h.22v.22h-.22zM217.78 174.43h.22v.21h-.22z"/><path class="cls-3" d="M217.78 167.1h.22v.22h-.22zM217.78 174.43h7.54v.21h-7.54z"/><path class="cls-3" d="M225.11 174.43h.21v.21h-.21zM239.76 167.1h.21v.22h-.21z"/><path class="cls-3" d="M239.76 167.1h.21v.22h-.21zM247.08 174.43h.22v.21h-.22z"/><path class="cls-3" d="M247.08 174.43h.22v.21h-.22zM254.41 167.1h.21v.22h-.21z"/><path class="cls-3" d="M254.41 167.1h.21v.22h-.21zM261.73 174.42h.22v.22h-.22zM269.06 174.42h.21v.22h-.21zM276.38 167.1h.22v.22h-.22zM313.22 181.75v.25H313v-.22h.22v-7.1H313v-.23h-7.11v.23h-.21v-.23h.21v-7.09h-.21v-.23h-7.33v7.32h.22v.23h-.22v-.23H283.7v7.33h.22v.22H291v-.22h.21v.22H291v14.64h7.32v-.21h.22v-7.1h-.22v-.23h.22v.23h29.07v-.23h.23v-7.32Z"/><path class="cls-3" d="M298.35 174.42h.22v.22h-.22zM305.68 167.1h.21v.22h-.21zM305.68 174.42h.21v.22h-.21zM313 167.1h.22v.22H313zM313 174.42h.22v.22H313zM320.33 167.1h.21v.22h-.21z"/><path class="cls-3" d="M320.33 167.1h.21v.22h-.21zM327.64 167.1h.22v.22h-.22zM254.63 240.35V255h-.22v.21h-7.33v-7.32h.23v-.22h-.23v.22h-7.1v-.22h-.22v.22h.22v14.65h-21.97v-.23h-.23v.23h.23v7.32h-14.65v-.22h-.22v-7.1h.22v-.23h-.22v.23h-7.11v-.23h-.21v.23h.21v7.1h-.21v.22h.21v-.22h7.11v.22h.22v7.1h-.22v.23h-7.11v-.23h-.21v.23h.21v14.65h-7.54V255h14.65v.21h.22V255h-.22v-7.11h.22v-.22h-.22v.22h-14.65v-21.97h.22v-.22h-.22v.22h-7.1v-.22h-.22v-7.11h.22v-.21h-.22v.21h-7.11v-.21h-.21v.21h.21v7.11h-.21v.22h.21v-.22h7.11v.22h.22v7.32h-29.52v-7.32h.22v-.22h-.22v.22h-7.32v-7.54h14.65v.21h.21v7.11h-.21v.22h.21v-.22h7.11v.22h.22v-.22h-.22v-7.11h.22v-.21h-.22v.21h-7.11v-.21h-.21v-7.11h.21v-.22h7.11v.22h.22v-.22h-.22v-7.11h.22v-.21h-.22v.21h-7.11v-.21h-.21v.21h.21v7.11h-.21v.22h-14.65v-14.64h.21v-.23h-.21v.23H129.9v-22.2h7.32v.22h.23v7.1h-.23v.23h.23v-.23h7.31v7.33h-.21v.21h.21v-.21h7.33v7.32h-.22v.23h.22v-.23h14.43v.23h.22v-.23h-.22v-14.65h14.65v.23h.22v7.31h-7.33v-.21h-.21v.21h.21v7.11h-.21v.23h.21v-.23h14.43v.23h.22v-.23h-.22v-7.32h7.33v.21h.21v7.11h-.21v.23h.21v-.23h7.11v.23h.22v7.1h-.22v.21h-29.08v-.21h-.21v.21h.21v7.11h-.21v.22h.21v-.22h14.65v7.33h-.22v.21h.22v-.21h7.32v7.32h-.21v.22h.21v-.22h7.11v.22h.22v7.1h-.22v.22h-7.11v-.22h-.21v.22h.21v7.11h-.21v.21h.21v-.21h7.11v.21h.22v-.21h-.22v-7.11h.22v-.22h7.11v.22h.21v-.22h-.21v-7.1h.21v-.22h-.21v.22h-7.11v-.22h-.22v-7.32h14.64v.21h.23v7.11h-.23v.22h.23v-.22h14.65v14.65h-.23v.21h-7.32v-7.32h.22v-.22h-.22v.22h-7.1v-.22h-.23v.22h.23v7.32h-7.33v-.21h-.21v.21h.21V255h-.21v.21h.21V255h7.1v.21h7.55V255h7.1v.21h.23V255h-.23v-14.44h.23v-.21h21.97z"/><path class="cls-3" d="M137.22 174.43h.22v.21h-.22zM137.22 181.75h.22v.22h-.22zM181.17 174.43h.22v.21h-.22zM181.17 181.75h.22v.22h-.22zM195.82 174.43h.21v.21h-.21zM195.82 181.75h.21v.22h-.21zM203.14 174.43h7.54v7.54h-7.54zM217.78 174.43h7.54v7.54h-7.54zM247.08 174.43h.22v.21h-.22zM247.08 181.75h.22v.22h-.22zM254.41 181.75h.21v.22h-.21z"/><path class="cls-3" d="M254.41 181.75h.21v.22h-.21zM261.73 174.43h.22v.21h-.22z"/><path class="cls-3" d="M261.73 174.42h.22v.22h-.22zM269.06 174.42h.21v.22h-.21z"/><path class="cls-3" d="M269.06 174.42h.21v.22h-.21zM276.38 181.75h.22v.21h-.22zM283.7 181.75h.22v.21h-.22zM291.03 181.75h.21v.21h-.21z"/><path class="cls-3" d="M291.03 181.75h.21v.21h-.21zM298.35 174.42h.22v.22h-.22z"/><path class="cls-3" d="M298.35 174.42h.22v.22h-.22zM305.68 174.42h.21v.22h-.21z"/><path class="cls-3" d="M305.68 174.42h.21v.22h-.21zM313 174.42h.22v.22H313zM313 181.75h.22v.21H313zM334.97 174.43h7.54v7.54h-7.54zM137.22 181.75h.22v.22h-.22z"/><path class="cls-3" d="M137.22 181.75h.22v.22h-.22zM144.55 189.08h.21v.21h-.21zM173.85 189.08h.21v.21h-.21z"/><path class="cls-3" d="M173.85 189.08h.21v.21h-.21zM181.17 181.75h.22v.22h-.22zM195.82 181.75h7.54v7.54h-7.54zM239.76 189.08h.21v.21h-.21z"/><path class="cls-3" d="M239.76 189.08h.21v.21h-.21zM247.08 181.75h.22v.22h-.22z"/><path class="cls-3" d="M247.08 181.75h.22v.22h-.22zM254.41 181.75h.21v.22h-.21zM283.92 181.97v14.64h-7.54v-14.64h.22v-.22h7.1v.22h.22z"/><path class="cls-3" d="M276.38 181.75h.22v.21h-.22zM283.7 181.75h.22v.21h-.22zM291.03 181.75h.21v.21h-.21zM298.35 189.07h.22v.22h-.22z"/><path class="cls-3" d="M298.35 189.07h.22v.22h-.22zM313 181.75h.22v.21H313z"/><path class="cls-3" d="M313 181.75h.22v.21H313zM327.64 189.07h.22v.22h-.22zM144.55 189.08h.21v.21h-.21zM144.55 196.4h.21v.22h-.21z"/><path class="cls-3" d="M144.55 189.08h.21v.21h-.21zM144.55 196.4h.21v.22h-.21zM151.87 196.4h.22v.22h-.22zM166.52 196.4h.22v.22h-.22zM173.85 189.08h.21v.21h-.21zM173.85 196.4h.21v.22h-.21zM188.49 196.4h.22v.22h-.22zM195.82 189.08h.21v.21h-.21zM195.82 196.4h.21v.22h-.21zM203.14 189.08h.22v.21h-.22zM203.14 196.4h.22v.22h-.22z"/><path class="cls-3" d="M225.33 189.08v7.32h-.22v.22h-21.75v-.22h-.22v-7.11h.22v-.21h21.97z"/><path class="cls-3" d="M225.11 196.4h.21v.22h-.21zM232.43 196.4h.22v.22h-.22zM239.76 189.08h.21v.21h-.21zM239.76 196.4h.21v.22h-.21zM261.73 196.4h.22v.21h-.22zM298.35 189.07h.22v.22h-.22zM298.35 196.4h.22v.21h-.22zM327.64 189.07h7.54v7.54h-7.54zM144.55 196.4h.21v.22h-.21zM151.87 196.4h.22v.22h-.22z"/><path class="cls-3" d="M151.87 196.4h.22v.22h-.22zM159.2 203.73h.21v.21h-.21z"/><path class="cls-3" d="M159.2 203.73h.21v.21h-.21zM166.52 196.4h.22v.22h-.22zM166.52 203.73h.22v.21h-.22z"/><path class="cls-3" d="M166.52 196.4h.22v.22h-.22zM166.52 203.73h.22v.21h-.22zM173.85 196.4h.21v.22h-.21zM173.85 203.73h.21v.21h-.21z"/><path class="cls-3" d="M173.85 196.4h.21v.22h-.21zM173.85 203.73h.21v.21h-.21zM188.49 196.4h.22v.22h-.22z"/><path class="cls-3" d="M188.49 196.4h.22v.22h-.22zM195.82 196.4h.21v.22h-.21z"/><path class="cls-3" d="M195.82 196.4h.21v.22h-.21zM203.14 196.4h.22v.22h-.22zM203.14 203.73h.22v.21h-.22zM225.11 196.4h.21v.22h-.21zM232.43 196.4h.22v.22h-.22z"/><path class="cls-3" d="M232.43 196.4h.22v.22h-.22zM239.76 196.4h.21v.22h-.21z"/><path class="cls-3" d="M239.76 196.4h.21v.22h-.21zM247.08 203.73h.22v.21h-.22z"/><path class="cls-3" d="M247.08 203.73h.22v.21h-.22zM261.73 196.4h.22v.21h-.22z"/><path class="cls-3" d="M261.73 196.4h.22v.21h-.22zM269.06 203.72h.21v.22h-.21zM298.35 196.4h.22v.21h-.22zM298.35 203.72h.22v.22h-.22zM305.68 203.72h.21v.22h-.21zM313 203.72h.22v.22H313zM320.33 203.72h.21v.22h-.21z"/><path class="cls-3" d="M327.87 196.61v21.76h-.23v.22h-7.31v-14.65h.21v-.22h-.21v.22h-7.11v-.22H313v-7.32h14.64v.21h.23z"/><path class="cls-3" d="M320.33 203.72h.21v.22h-.21zM327.64 196.4h.22v.21h-.22zM159.2 203.73h.21v.21h-.21zM159.2 211.05h.21v.22h-.21zM166.52 203.73h.22v.21h-.22zM166.52 211.05h.22v.22h-.22zM173.85 203.73h.21v.21h-.21zM173.85 211.05h.21v.22h-.21zM203.14 203.73h.22v.21h-.22z"/><path class="cls-3" d="M218.01 203.73v7.31h-.23v.23h-14.64v-7.33h.22v-.21h14.65z"/><path class="cls-3" d="M217.78 211.05h.22v.22h-.22zM247.08 203.73h.22v.21h-.22zM247.08 211.05h.22v.22h-.22zM261.73 211.05h.22v.21h-.22z"/><path class="cls-3" d="M261.73 211.05h.22v.21h-.22zM269.06 203.72h.21v.22h-.21z"/><path class="cls-3" d="M269.06 203.72h.21v.22h-.21zM283.7 211.05h.22v.21h-.22zM291.03 211.05h.21v.21h-.21zM298.35 203.72h.22v.22h-.22z"/><path class="cls-3" d="M298.35 203.72h.22v.22h-.22zM305.68 203.72h.21v.22h-.21z"/><path class="cls-3" d="M313.22 203.94v7.32h-21.98v-.21h-.21v-7.33h7.32v.22h.22v-.22h-.22v-7.11h.22v-.21h7.32v7.32h-.21v.22h.21v-.22H313v.22h.22z"/><path class="cls-3" d="M305.68 203.72h.21v.22h-.21zM313 203.72h.22v.22H313zM320.33 203.72h.21v.22h-.21zM334.97 203.72h7.54v7.54h-7.54zM159.2 211.05h.21v.22h-.21zM159.2 218.38h.21v.21h-.21zM166.52 211.05h.22v.22h-.22zM166.52 218.38h.22v.21h-.22z"/><path class="cls-3" d="M166.52 211.05h.22v.22h-.22zM166.52 218.38h.22v.21h-.22zM173.85 211.05h.21v.22h-.21zM173.85 218.38h.21v.21h-.21z"/><path class="cls-3" d="M173.85 211.05h.21v.22h-.21zM173.85 218.38h.21v.21h-.21zM181.17 218.38h.22v.21h-.22z"/><path class="cls-3" d="M181.17 218.38h.22v.21h-.22zM188.49 218.38h.22v.21h-.22zM217.78 211.05h7.54v7.54h-7.54zM247.08 211.05h.22v.22h-.22z"/><path class="cls-3" d="M247.08 211.05h.22v.22h-.22zM261.73 211.05h.22v.21h-.22zM261.73 218.37h.22v.22h-.22zM283.7 211.05h.22v.21h-.22zM283.7 218.37h.22v.22h-.22zM291.03 211.05h.21v.21h-.21zM327.64 218.37h.22v.22h-.22zM151.87 225.7h.22v.22h-.22z"/><path class="cls-3" d="M151.87 225.7h.22v.22h-.22zM159.2 218.38h.21v.21h-.21zM159.2 225.7h.21v.22h-.21zM166.52 218.38h.22v.21h-.22zM166.52 225.7h.22v.22h-.22zM173.85 218.38h.21v.21h-.21zM173.85 225.7h.21v.22h-.21zM181.17 218.38h.22v.21h-.22zM181.17 225.7h.22v.22h-.22zM188.49 218.38h.22v.21h-.22zM188.49 225.7h.22v.22h-.22z"/><path class="cls-3" d="M188.49 218.38h.22v.21h-.22zM188.49 225.7h.22v.22h-.22zM195.82 225.7h.21v.22h-.21zM203.14 225.7h.22v.22h-.22zM210.47 225.7h.21v.22h-.21z"/><path class="cls-3" d="M210.47 225.7h.21v.22h-.21zM217.78 218.38h.22v.21h-.22zM217.78 225.7h.22v.22h-.22zM261.73 218.37h7.54v7.54h-7.54zM283.7 218.37h.22v.22h-.22z"/><path class="cls-3" d="M283.7 218.37h.22v.22h-.22zM291.03 225.7h.21v.21h-.21zM305.68 225.7h.21v.21h-.21zM327.64 218.37h.22v.22h-.22zM327.64 225.7h.22v.21h-.22zM334.97 225.7h.21v.21h-.21zM129.9 203.73h7.54v29.51h-7.54zM151.87 225.7h.22v.22h-.22zM159.2 225.7h.21v.22h-.21z"/><path class="cls-3" d="M159.2 225.7h.21v.22h-.21zM166.52 225.7h.22v.22h-.22z"/><path class="cls-3" d="M166.52 225.7h.22v.22h-.22zM173.85 225.7h.21v.22h-.21z"/><path class="cls-3" d="M173.85 225.7h.21v.22h-.21zM181.17 225.7h.22v.22h-.22zM188.49 225.7h.22v.22h-.22zM195.82 233.02h.21v.22h-.21zM195.82 225.7h.21v.22h-.21z"/><path class="cls-3" d="M195.82 225.7h.21v.22h-.21zM195.82 233.02h.21v.22h-.21zM203.14 225.7h.22v.22h-.22zM203.14 233.02h.22v.22h-.22zM210.47 225.7h.21v.22h-.21zM210.47 233.02h.21v.22h-.21zM217.78 233.02h.22v.22h-.22zM217.78 225.7h.22v.22h-.22z"/><path class="cls-3" d="M217.78 225.7h.22v.22h-.22zM217.78 233.02h.22v.22h-.22zM225.11 233.02h.21v.22h-.21z"/><path class="cls-3" d="M225.11 233.02h.21v.22h-.21zM239.76 225.69h7.54v7.54h-7.54zM254.41 225.7h7.54v7.54h-7.54zM276.38 233.02h7.54v.22h-7.54z"/><path class="cls-3" d="M283.7 233.02h.22v.22h-.22zM291.03 225.7h.21v.21h-.21z"/><path class="cls-3" d="M291.03 225.7h.21v.21h-.21zM305.68 225.7h.21v.21h-.21zM305.68 233.02h.21v.22h-.21z"/><path class="cls-3" d="M305.68 225.7h.21v.21h-.21zM305.68 233.02h.21v.22h-.21zM313 233.02h.22v.22H313zM320.33 233.02h.21v.22h-.21zM327.64 225.7h.22v.21h-.22z"/><path class="cls-3" d="M327.64 225.7h.22v.21h-.22zM334.97 225.7h.21v.21h-.21z"/><path class="cls-3" d="M334.97 225.7h.21v.21h-.21zM195.82 233.02h.21v.22h-.21zM195.82 240.35h.21v.21h-.21zM203.14 233.02h.22v.22h-.22zM203.14 240.35h.22v.21h-.22zM210.47 233.02h.21v.22h-.21zM210.47 240.35h.21v.21h-.21z"/><path class="cls-3" d="M210.47 233.02h.21v.22h-.21zM210.47 240.35h.21v.21h-.21zM217.78 233.02h.22v.22h-.22zM225.11 233.02h.21v.22h-.21zM232.43 240.35h.22v.21h-.22zM261.73 233.02h.22v.22h-.22zM276.38 233.02h.22v.22h-.22z"/><path class="cls-3" d="M276.38 233.02h7.54v.22h-7.54zM305.68 233.02h.21v.22h-.21zM313 233.02h.22v.22H313z"/><path class="cls-3" d="M313 233.02h.22v.22H313zM320.33 233.02h.21v.22h-.21z"/><path class="cls-3" d="M320.33 233.02h.21v.22h-.21zM327.64 240.35h.22v.21h-.22z"/><path class="cls-3" d="M327.64 240.35h.22v.21h-.22z"/><path class="cls-3" d="M313 247.89v-.22h.22v.22h14.65v-7.33h-.23v-.21h.23v.21h14.65V225.7h-7.33v.21H335v-.21h.22v-7.33h-7.32v.22h-.23v7.11h.23v.21h-.23v-.21h-7.31v7.3h.21v.22h-.21V233h-7.11v.22H313V233h.22v-14.63h-7.54v7.33h.21v.21h-.21v-.21h-14.44v.21H291v-.21h.21v-14.44H291v-.21h-7.11v.21h-.22v7.11h.22v.22h-.22v-.22h-7.32V233h7.54v.22h21.76V233h.21v.22h-.21V255h.21v.23h-.21V255h-21.73v.23h-.22V255h.22v-21.76h-7.54V233H262v.22h-.23v14.65h7.33v-.22h.21v.22h-.21v7.32h7.32V255h.22v.23h-.22v14.42h.22v.23h-.22v-.23h-14.69v14.66h.27v.22h7.1v-.23h.21v-7.1h-.21v-.2h.21v.22h7.11V277h.22v.22h-.22v7.1h.22v.23h7.32v-7.33h-.22V277h.22v.22H291V277h.21v.22H291v14.65h7.54v-7.32h-.22v-.23h.22v.23h7.11v-.23h.21v-7.1h-.21V277h.21v.22H313V277h.22v.22H313v7.1h.22v.23h7.11v-.23h.21v-7.1h-.21V277h.21v.22h7.1V277h.23v.22h-.23v7.1h.23v.23h7.32v-14.69H335v-.23h.22v.23h7.33v-22.19H335v14.64h.22v.22H335v-.22h-7.1v.22h-.23v-.22h.23V255h-7.54v7.33h.21v.22h-.21v-.22h-7.11v.22H313v7.1h.22v.23H313v-.23h-7.11v.23h-.21v-.23h.21v-7.1h-.21v-.22h.21v.22H313v-.22h.22v-14.44Zm-14.43 14.64h-.22v7.1h.22v.23h-.22v-.23h-14.43v.23h-.22v-.23h.22v-7.1h-.22v-.22h.22v.22h14.43v-.22h.22ZM195.82 240.35h.21v.21h-.21z"/><path class="cls-3" d="M195.82 240.35h.21v.21h-.21zM203.14 240.35h.22v.21h-.22zM203.14 247.67h.22v.22h-.22z"/><path class="cls-3" d="M203.14 240.35h.22v.21h-.22zM203.14 247.67h.22v.22h-.22zM210.47 240.35h.21v.21h-.21zM232.43 240.35h.22v.21h-.22zM239.76 247.67h.21v.22h-.21z"/><path class="cls-3" d="M239.76 247.67h.21v.22h-.21zM247.08 247.67h.22v.22h-.22z"/><path class="cls-3" d="M247.08 247.67h.22v.22h-.22zM269.06 247.67h.21v.22h-.21z"/><path class="cls-3" d="M269.06 247.67h.21v.22h-.21zM291.03 240.34h7.54v7.54h-7.54zM313 247.67h.22v.22H313z"/><path class="cls-3" d="M313 247.67h.22v.22H313zM327.64 240.35h.22v.21h-.22zM203.14 247.67h.22v.22h-.22zM203.14 255h.22v.21h-.22zM210.47 255h.21v.21h-.21zM217.78 247.67h7.54v7.54h-7.54zM232.43 255h.22v.21h-.22zM239.76 247.67h.21v.22h-.21zM247.08 247.67h.22v.22h-.22zM254.41 255h.21v.21h-.21zM269.06 247.67h.21v.22h-.21zM276.38 254.98h.22v.22h-.22z"/><path class="cls-3" d="M276.38 254.98h.22v.22h-.22zM283.7 254.98h.22v.22h-.22zM305.68 254.98h.21v.22h-.21zM313 247.67h.22v.22H313zM195.82 262.31h.21v.22h-.21z"/><path class="cls-3" d="M195.82 262.31h.21v.22h-.21zM203.14 255h.22v.21h-.22zM203.14 262.31h.22v.22h-.22z"/><path class="cls-3" d="M203.14 262.31h.22v.22h-.22zM203.14 255h.22v.21h-.22zM210.47 255h.21v.21h-.21z"/><path class="cls-3" d="M210.47 255h.21v.21h-.21zM217.78 262.31h.22v.22h-.22zM217.78 255h.22v.21h-.22z"/><path class="cls-3" d="M217.78 262.31h.22v.22h-.22zM217.78 255h7.54v.21h-7.54z"/><path class="cls-3" d="M225.11 255h.21v.21h-.21zM232.43 255h.22v.21h-.22z"/><path class="cls-3" d="M232.43 255h.22v.21h-.22zM254.41 255h7.54v7.54h-7.54zM276.38 254.98h.22v.22h-.22zM283.7 254.98h.22v.22h-.22zM283.7 262.31h.22v.21h-.22z"/><path class="cls-3" d="M283.7 254.98h.22v.22h-.22zM283.7 262.31h.22v.21h-.22zM298.35 262.31h.22v.21h-.22z"/><path class="cls-3" d="M298.35 262.31h.22v.21h-.22zM305.68 262.31h.21v.21h-.21zM305.68 254.98h.21v.22h-.21z"/><path class="cls-3" d="M305.68 254.98h.21v.22h-.21zM305.68 262.31h.21v.21h-.21zM313 262.31h.22v.21H313zM320.33 262.31h.21v.21h-.21zM327.64 262.31h.22v.21h-.22zM334.97 262.31h.21v.21h-.21zM195.82 262.31h.21v.22h-.21zM195.82 269.64h.21v.21h-.21zM203.14 269.64h.22v.21h-.22zM203.14 262.31h.22v.22h-.22zM217.78 262.31h.22v.22h-.22zM276.38 269.63h.22v.22h-.22zM283.7 269.63h.22v.22h-.22zM283.7 262.31h.22v.21h-.22zM298.35 262.31h.22v.21h-.22zM298.35 269.63h.22v.22h-.22z"/><path class="cls-3" d="M305.68 262.31h.21v.21h-.21zM305.68 269.63h.21v.22h-.21zM313 262.31h.22v.21H313zM313 269.63h.22v.22H313zM320.33 262.31h.21v.21h-.21z"/><path class="cls-3" d="M320.33 262.31h.21v.21h-.21zM327.64 262.31h.22v.21h-.22z"/><path class="cls-3" d="M327.64 262.31h.22v.21h-.22zM334.97 262.31h.21v.21h-.21zM334.97 269.63h.21v.22h-.21z"/><path class="cls-3" d="M334.97 262.31h.21v.21h-.21zM334.97 269.63h.21v.22h-.21zM195.82 269.64h.21v.21h-.21zM195.82 276.96h.21v.22h-.21z"/><path class="cls-3" d="M195.82 269.64h.21v.21h-.21zM195.82 276.96h.21v.22h-.21zM203.14 269.64h.22v.21h-.22zM203.14 276.96h.22v.22h-.22zM225.11 269.64h7.54v7.54h-7.54zM239.76 276.96h.21v.22h-.21zM269.06 276.96h.21v.21h-.21z"/><path class="cls-3" d="M269.06 276.96h.21v.21h-.21zM276.38 269.63h.22v.22h-.22zM276.38 276.96h.22v.21h-.22z"/><path class="cls-3" d="M276.38 276.96h.22v.21h-.22zM276.38 269.63h.22v.22h-.22zM283.7 269.63h.22v.22h-.22zM283.7 276.96h.22v.21h-.22z"/><path class="cls-3" d="M283.7 269.63h.22v.22h-.22zM283.7 276.96h.22v.21h-.22zM291.03 276.96h.21v.21h-.21z"/><path class="cls-3" d="M291.03 276.96h.21v.21h-.21zM298.35 269.63h.22v.22h-.22z"/><path class="cls-3" d="M298.35 269.63h.22v.22h-.22zM305.68 269.63h.21v.22h-.21zM305.68 276.96h.21v.21h-.21z"/><path class="cls-3" d="M305.68 269.63h.21v.22h-.21zM305.68 276.96h.21v.21h-.21zM313 269.63h.22v.22H313zM313 276.96h.22v.21H313z"/><path class="cls-3" d="M313 276.96h.22v.21H313zM320.33 276.96h.21v.21h-.21zM313 269.63h.22v.22H313z"/><path class="cls-3" d="M320.33 276.96h.21v.21h-.21zM327.64 276.96h.22v.21h-.22z"/><path class="cls-3" d="M327.64 276.96h.22v.21h-.22zM334.97 269.63h.21v.22h-.21zM195.82 276.96h.21v.22h-.21zM261.73 284.5v-.21h-14.42v.21h-.23v-.21h.23v-14.65h-7.55V277h.24v.22h-.22V277h-7.1v.22h-.23v7.11h.23v.21h-.23v-.21H218v.21h-.23v-.21h.23V277h-14.64v.22h-.22v7.32h7.33v-.21h.21v.21h-.21v7.33H262v-7.37Z"/><path class="cls-3" d="M203.14 276.96h.22v.22h-.22zM210.47 284.29h.21v.21h-.21z"/><path class="cls-3" d="M210.47 284.29h.21v.21h-.21zM217.78 284.29h.22v.21h-.22zM232.43 276.96h.22v.22h-.22zM232.43 284.29h.22v.21h-.22zM239.76 276.96h.21v.22h-.21z"/><path class="cls-3" d="M239.76 276.96h.21v.22h-.21zM247.08 284.29h.22v.21h-.22zM261.73 284.29h.22v.21h-.22zM269.06 276.96h.21v.21h-.21zM269.06 284.28h.21v.22h-.21zM276.38 276.96h.22v.21h-.22zM276.38 284.28h.22v.22h-.22zM283.7 276.96h.22v.21h-.22zM291.03 276.96h.21v.21h-.21zM298.35 284.28h.22v.22h-.22z"/><path class="cls-3" d="M298.35 284.28h.22v.22h-.22zM305.68 276.96h.21v.21h-.21zM305.68 284.28h.21v.22h-.21zM313 276.96h.22v.21H313zM313 284.28h.22v.22H313zM320.33 276.96h.21v.21h-.21zM320.33 284.28h.21v.22h-.21zM327.64 276.96h.22v.21h-.22zM327.64 284.28h.22v.22h-.22zM210.47 284.29h.21v.21h-.21zM217.78 284.29h.22v.21h-.22z"/><path class="cls-3" d="M217.78 284.29h.22v.21h-.22zM232.43 284.29h.22v.21h-.22z"/><path class="cls-3" d="M232.43 284.29h.22v.21h-.22zM247.08 284.29h.22v.21h-.22z"/><path class="cls-3" d="M247.08 284.29h.22v.21h-.22zM261.73 284.29h.22v.21h-.22zM269.06 284.28h7.54v7.54h-7.54zM298.35 284.28h.22v.22h-.22zM305.68 284.28h7.54v7.54h-7.54zM320.33 284.28h7.54v7.54h-7.54zM129.9 79.22v51.26h51.27V79.22Zm43.94 43.94h-36.62V86.54h36.62ZM291 79.22v51.26h51.26V79.22Zm44 43.94h-36.65V86.54H335ZM129.9 240.34v51.27h51.27v-51.27Zm43.94 44h-36.62v-36.67h36.62Z"/><path class="cls-3" d="M144.55 93.86h21.97v21.97h-21.97zM305.67 93.86h21.97v21.97h-21.97zM144.55 254.99h21.97v21.97h-21.97z"/><path style="fill:url(#linear-gradient);opacity:.5" d="M129.9 79.21h212.62v212.62H129.9z"/><rect class="cls-2" x="304.78" y="54.76" width="155.32" height="296.23" rx="18.88"/><path class="cls-5" d="M444.59 75.45V54.57A25.55 25.55 0 0 0 419 29H304.49a25.55 25.55 0 0 0-25.56 25.55V73c-1.83.43-3.74 1.88-3.74 3.6v27.5c0 1.72 1.91 3.17 3.74 3.61v11.51c-1.83.44-3.74 1.88-3.74 3.61v13.75c0 1.72 1.91 3.17 3.74 3.6V310a25.55 25.55 0 0 0 25.56 25.55H419A25.55 25.55 0 0 0 444.59 310V103.82c1.83-.44 3.74-1.89 3.74-3.61V79.06c0-1.72-1.91-3.17-3.74-3.61Z"/><rect x="284.1" y="34.19" width="155.32" height="296.23" rx="18.88" style="fill:url(#linear-gradient-2)"/><path class="cls-5" d="M374.69 51.74h-29.61a6.42 6.42 0 1 1 0-12.84h29.61a6.42 6.42 0 1 1 0 12.84Z"/><path class="cls-7" d="M297.56 144.75V118.1h26.65M399.31 118.1h26.65v26.65M425.96 219.85v26.65h-26.65M324.21 246.5h-26.65v-26.65"/><path class="cls-3" d="M341.08 127.87h3.86v3.86h-3.86zM356.08 127.87h3.86v3.86h-3.86zM367.33 127.87h3.86v3.86h-3.86zM378.58 127.87h3.86v3.86h-3.86z"/><path class="cls-3" d="M382.33 127.87h3.86v3.86h-3.86zM337.33 131.62h3.86v3.86h-3.86z"/><path class="cls-3" d="M341.08 131.62h3.86v3.86h-3.86zM348.58 131.62h3.86v3.86h-3.86z"/><path class="cls-3" d="M352.33 131.62h3.86v3.86h-3.86z"/><path class="cls-3" d="M356.08 131.62h3.86v3.86h-3.86z"/><path class="cls-3" d="M359.83 131.62h3.86v3.86h-3.86z"/><path class="cls-3" d="M363.58 131.62h3.86v3.86h-3.86zM371.08 131.62h3.86v3.86h-3.86z"/><path class="cls-3" d="M374.83 131.62h3.86v3.86h-3.86zM382.33 131.62h3.86v3.86h-3.86zM341.08 135.37h3.86v3.86h-3.86z"/><path class="cls-3" d="M344.83 135.37h3.86v3.86h-3.86z"/><path class="cls-3" d="M348.58 135.37h3.86v3.86h-3.86zM359.83 135.37h3.86v3.86h-3.86z"/><path class="cls-3" d="M363.58 135.37h3.86v3.86h-3.86zM374.83 135.37h3.86v3.86h-3.86zM382.33 135.37h3.86v3.86h-3.86zM337.33 139.12h3.86v3.86h-3.86z"/><path class="cls-3" d="M341.08 139.12h3.86v3.86h-3.86zM348.58 139.12h3.86v3.86h-3.86zM356.08 139.12h3.86v3.86h-3.86z"/><path class="cls-3" d="M359.83 139.12h3.86v3.86h-3.86z"/><path class="cls-3" d="M363.58 139.12h3.86v3.86h-3.86z"/><path class="cls-3" d="M367.33 139.12h3.86v3.86h-3.86z"/><path class="cls-3" d="M371.08 139.12h3.86v3.86h-3.86zM344.83 142.87h3.86v3.86h-3.86zM352.33 142.87h3.86v3.86h-3.86zM359.83 142.87h3.86v3.86h-3.86z"/><path class="cls-3" d="M367.33 142.87h3.86v3.86h-3.86zM374.83 142.87h3.86v3.86h-3.86z"/><path class="cls-3" d="M378.58 142.87h3.86v3.86h-3.86z"/><path class="cls-3" d="M382.33 142.87h3.86v3.86h-3.86zM337.33 146.62h3.86v3.86h-3.86zM344.83 146.62h3.86v3.86h-3.86zM356.08 146.62h3.86v3.86h-3.86zM363.58 146.62h3.86v3.86h-3.86zM371.08 146.62h3.86v3.86h-3.86z"/><path class="cls-3" d="M374.83 146.62h3.86v3.86h-3.86zM337.33 150.37h3.86v3.86h-3.86zM344.83 150.37h3.86v3.86h-3.86zM352.33 150.37h3.86v3.86h-3.86zM359.83 150.37h3.86v3.86h-3.86zM367.33 150.37h3.86v3.86h-3.86z"/><path class="cls-3" d="M374.83 150.37h3.86v3.86h-3.86zM382.33 150.37h3.86v3.86h-3.86zM352.33 154.12h3.86v3.86h-3.86zM363.58 154.12h3.86v3.86h-3.86z"/><path class="cls-3" d="M378.58 154.12h3.86v3.86h-3.86z"/><path class="cls-3" d="M382.33 154.12h3.86v3.86h-3.86zM307.33 157.87h3.86v3.86h-3.86z"/><path class="cls-3" d="M311.08 157.87h3.86v3.86h-3.86z"/><path class="cls-3" d="M314.83 157.87h3.86v3.86h-3.86z"/><path class="cls-3" d="M318.58 157.87h3.86v3.86h-3.86z"/><path class="cls-3" d="M322.33 157.87h3.86v3.86h-3.86zM329.83 157.87h3.86v3.86h-3.86z"/><path class="cls-3" d="M333.58 157.87h3.86v3.86h-3.86z"/><path class="cls-3" d="M337.33 157.87h3.86v3.86h-3.86z"/><path class="cls-3" d="M341.08 157.87h3.86v3.86h-3.86z"/><path class="cls-3" d="M344.83 157.87h3.86v3.86h-3.86zM352.33 157.87h3.86v3.86h-3.86z"/><path class="cls-3" d="M356.08 157.87h3.86v3.86h-3.86z"/><path class="cls-3" d="M359.83 157.87h3.86v3.86h-3.86z"/><path class="cls-3" d="M363.58 157.87h3.86v3.86h-3.86z"/><path class="cls-3" d="M367.33 157.87h3.86v3.86h-3.86z"/><path class="cls-3" d="M371.08 157.87h3.86v3.86h-3.86zM382.33 157.87h3.86v3.86h-3.86z"/><path class="cls-3" d="M386.08 157.87h3.86v3.86h-3.86zM393.58 157.87h3.86v3.86h-3.86zM401.08 157.87h3.86v3.86h-3.86zM408.58 157.87h3.86v3.86h-3.86zM314.83 161.62h3.86v3.86h-3.86zM322.33 161.62h3.86v3.86h-3.86z"/><path class="cls-3" d="M326.08 161.62h3.86v3.86h-3.86zM333.58 161.62h3.86v3.86h-3.86zM341.08 161.62h3.86v3.86h-3.86zM359.83 161.62h3.86v3.86h-3.86zM367.33 161.62h3.86v3.86h-3.86zM374.83 161.62h3.86v3.86h-3.86z"/><path class="cls-3" d="M378.58 161.62h3.86v3.86h-3.86z"/><path class="cls-3" d="M382.33 161.62h3.86v3.86h-3.86zM389.83 161.62h3.86v3.86h-3.86z"/><path class="cls-3" d="M393.58 161.62h3.86v3.86h-3.86z"/><path class="cls-3" d="M397.33 161.62h3.86v3.86h-3.86zM412.33 161.62h3.86v3.86h-3.86zM307.33 165.37h3.86v3.86h-3.86zM322.33 165.37h3.86v3.86h-3.86zM329.83 165.37h3.86v3.86h-3.86z"/><path class="cls-3" d="M333.58 165.37h3.86v3.86h-3.86z"/><path class="cls-3" d="M337.33 165.37h3.86v3.86h-3.86z"/><path class="cls-3" d="M341.08 165.37h3.86v3.86h-3.86zM348.58 165.37h3.86v3.86h-3.86z"/><path class="cls-3" d="M352.33 165.37h3.86v3.86h-3.86zM359.83 165.37h3.86v3.86h-3.86z"/><path class="cls-3" d="M363.58 165.37h3.86v3.86h-3.86z"/><path class="cls-3" d="M367.33 165.37h3.86v3.86h-3.86zM397.33 165.37h3.86v3.86h-3.86zM307.33 169.12h3.86v3.86h-3.86zM318.58 169.12h3.86v3.86h-3.86z"/><path class="cls-3" d="M322.33 169.12h3.86v3.86h-3.86zM333.58 169.12h3.86v3.86h-3.86z"/><path class="cls-3" d="M337.33 169.12h3.86v3.86h-3.86z"/><path class="cls-3" d="M341.08 169.12h3.86v3.86h-3.86z"/><path class="cls-3" d="M344.83 169.12h3.86v3.86h-3.86z"/><path class="cls-3" d="M348.58 169.12h3.86v3.86h-3.86zM363.58 169.12h3.86v3.86h-3.86z"/><path class="cls-3" d="M367.33 169.12h3.86v3.86h-3.86zM378.58 169.12h3.86v3.86h-3.86z"/><path class="cls-3" d="M382.33 169.12h3.86v3.86h-3.86z"/><path class="cls-3" d="M386.08 169.12h3.86v3.86h-3.86zM397.33 169.12h3.86v3.86h-3.86z"/><path class="cls-3" d="M401.08 169.12h3.86v3.86h-3.86zM408.58 169.12h3.86v3.86h-3.86zM311.08 172.87h3.86v3.86h-3.86zM322.33 172.87h3.86v3.86h-3.86z"/><path class="cls-3" d="M326.08 172.87h3.86v3.86h-3.86z"/><path class="cls-3" d="M329.83 172.87h3.86v3.86h-3.86z"/><path class="cls-3" d="M333.58 172.87h3.86v3.86h-3.86z"/><path class="cls-3" d="M337.33 172.87h3.86v3.86h-3.86z"/><path class="cls-3" d="M341.08 172.87h3.86v3.86h-3.86zM348.58 172.87h3.86v3.86h-3.86z"/><path class="cls-3" d="M352.33 172.87h3.86v3.86h-3.86z"/><path class="cls-3" d="M356.08 172.87h3.86v3.86h-3.86z"/><path class="cls-3" d="M359.83 172.87h3.86v3.86h-3.86z"/><path class="cls-3" d="M363.58 172.87h3.86v3.86h-3.86z"/><path class="cls-3" d="M367.33 172.87h3.86v3.86h-3.86z"/><path class="cls-3" d="M371.08 172.87h3.86v3.86h-3.86zM378.58 172.87h3.86v3.86h-3.86zM393.58 172.87h3.86v3.86h-3.86zM401.08 172.87h3.86v3.86h-3.86z"/><path class="cls-3" d="M404.83 172.87h3.86v3.86h-3.86zM307.33 176.62h3.86v3.86h-3.86zM333.58 176.62h3.86v3.86h-3.86z"/><path class="cls-3" d="M337.33 176.62h3.86v3.86h-3.86zM344.83 176.62h3.86v3.86h-3.86zM352.33 176.62h3.86v3.86h-3.86zM367.33 176.62h3.86v3.86h-3.86z"/><path class="cls-3" d="M371.08 176.62h3.86v3.86h-3.86z"/><path class="cls-3" d="M374.83 176.62h3.86v3.86h-3.86z"/><path class="cls-3" d="M378.58 176.62h3.86v3.86h-3.86zM386.08 176.62h3.86v3.86h-3.86z"/><path class="cls-3" d="M389.83 176.62h3.86v3.86h-3.86z"/><path class="cls-3" d="M393.58 176.62h3.86v3.86h-3.86z"/><path class="cls-3" d="M397.33 176.62h3.86v3.86h-3.86zM412.33 176.62h3.86v3.86h-3.86zM307.33 180.37h3.86v3.86h-3.86z"/><path class="cls-3" d="M311.08 180.37h3.86v3.86h-3.86zM326.08 180.37h3.86v3.86h-3.86z"/><path class="cls-3" d="M329.83 180.37h3.86v3.86h-3.86zM341.08 180.37h3.86v3.86h-3.86zM359.83 180.37h3.86v3.86h-3.86z"/><path class="cls-3" d="M363.58 180.37h3.86v3.86h-3.86z"/><path class="cls-3" d="M367.33 180.37h3.86v3.86h-3.86zM382.33 180.37h3.86v3.86h-3.86zM389.83 180.37h3.86v3.86h-3.86z"/><path class="cls-3" d="M393.58 180.37h3.86v3.86h-3.86z"/><path class="cls-3" d="M397.33 180.37h3.86v3.86h-3.86z"/><path class="cls-3" d="M401.08 180.37h3.86v3.86h-3.86z"/><path class="cls-3" d="M404.83 180.37h3.86v3.86h-3.86zM307.33 184.12h3.86v3.86h-3.86z"/><path class="cls-3" d="M311.08 184.12h3.86v3.86h-3.86z"/><path class="cls-3" d="M314.83 184.12h3.86v3.86h-3.86zM326.08 184.12h3.86v3.86h-3.86zM337.33 184.12h3.86v3.86h-3.86zM344.83 184.12h3.86v3.86h-3.86z"/><path class="cls-3" d="M348.58 184.12h3.86v3.86h-3.86z"/><path class="cls-3" d="M352.33 184.12h3.86v3.86h-3.86zM359.83 184.12h3.86v3.86h-3.86zM374.83 184.12h3.86v3.86h-3.86zM382.33 184.12h3.86v3.86h-3.86zM389.83 184.12h3.86v3.86h-3.86zM408.58 184.12h3.86v3.86h-3.86zM314.83 187.87h3.86v3.86h-3.86z"/><path class="cls-3" d="M318.58 187.87h3.86v3.86h-3.86z"/><path class="cls-3" d="M322.33 187.87h3.86v3.86h-3.86z"/><path class="cls-3" d="M326.08 187.87h3.86v3.86h-3.86z"/><path class="cls-3" d="M329.83 187.87h3.86v3.86h-3.86z"/><path class="cls-3" d="M333.58 187.87h3.86v3.86h-3.86z"/><path class="cls-3" d="M337.33 187.87h3.86v3.86h-3.86z"/><path class="cls-3" d="M341.08 187.87h3.86v3.86h-3.86zM356.08 187.87h3.86v3.86h-3.86z"/><path class="cls-3" d="M359.83 187.87h3.86v3.86h-3.86z"/><path class="cls-3" d="M363.58 187.87h3.86v3.86h-3.86z"/><path class="cls-3" d="M367.33 187.87h3.86v3.86h-3.86z"/><path class="cls-3" d="M371.08 187.87h3.86v3.86h-3.86z"/><path class="cls-3" d="M374.83 187.87h3.86v3.86h-3.86zM393.58 187.87h3.86v3.86h-3.86zM401.08 187.87h3.86v3.86h-3.86z"/><path class="cls-3" d="M404.83 187.87h3.86v3.86h-3.86zM307.33 191.62h3.86v3.86h-3.86zM314.83 191.62h3.86v3.86h-3.86z"/><path class="cls-3" d="M318.58 191.62h3.86v3.86h-3.86zM326.08 191.62h3.86v3.86h-3.86zM344.83 191.62h3.86v3.86h-3.86z"/><path class="cls-3" d="M348.58 191.62h3.86v3.86h-3.86zM367.33 191.62h3.86v3.86h-3.86z"/><path class="cls-3" d="M371.08 191.62h3.86v3.86h-3.86z"/><path class="cls-3" d="M374.83 191.62h3.86v3.86h-3.86z"/><path class="cls-3" d="M378.58 191.62h3.86v3.86h-3.86z"/><path class="cls-3" d="M382.33 191.62h3.86v3.86h-3.86zM389.83 191.62h3.86v3.86h-3.86z"/><path class="cls-3" d="M393.58 191.62h3.86v3.86h-3.86z"/><path class="cls-3" d="M397.33 191.62h3.86v3.86h-3.86zM404.83 191.62h3.86v3.86h-3.86zM412.33 191.62h3.86v3.86h-3.86zM307.33 195.37h3.86v3.86h-3.86zM322.33 195.37h3.86v3.86h-3.86z"/><path class="cls-3" d="M326.08 195.37h3.86v3.86h-3.86z"/><path class="cls-3" d="M329.83 195.37h3.86v3.86h-3.86z"/><path class="cls-3" d="M333.58 195.37h3.86v3.86h-3.86zM352.33 195.37h3.86v3.86h-3.86zM359.83 195.37h3.86v3.86h-3.86z"/><path class="cls-3" d="M363.58 195.37h3.86v3.86h-3.86z"/><path class="cls-3" d="M367.33 195.37h3.86v3.86h-3.86z"/><path class="cls-3" d="M371.08 195.37h3.86v3.86h-3.86zM386.08 195.37h3.86v3.86h-3.86zM404.83 195.37h3.86v3.86h-3.86zM307.33 199.12h3.86v3.86h-3.86zM314.83 199.12h3.86v3.86h-3.86z"/><path class="cls-3" d="M318.58 199.12h3.86v3.86h-3.86zM326.08 199.12h3.86v3.86h-3.86zM333.58 199.12h3.86v3.86h-3.86z"/><path class="cls-3" d="M337.33 199.12h3.86v3.86h-3.86zM344.83 199.12h3.86v3.86h-3.86z"/><path class="cls-3" d="M348.58 199.12h3.86v3.86h-3.86zM374.83 199.12h3.86v3.86h-3.86zM382.33 199.12h3.86v3.86h-3.86z"/><path class="cls-3" d="M386.08 199.12h3.86v3.86h-3.86zM397.33 199.12h3.86v3.86h-3.86zM408.58 199.12h3.86v3.86h-3.86zM307.33 202.87h3.86v3.86h-3.86zM318.58 202.87h3.86v3.86h-3.86z"/><path class="cls-3" d="M322.33 202.87h3.86v3.86h-3.86z"/><path class="cls-3" d="M326.08 202.87h3.86v3.86h-3.86z"/><path class="cls-3" d="M329.83 202.87h3.86v3.86h-3.86zM337.33 202.87h3.86v3.86h-3.86z"/><path class="cls-3" d="M341.08 202.87h3.86v3.86h-3.86zM348.58 202.87h3.86v3.86h-3.86z"/><path class="cls-3" d="M352.33 202.87h3.86v3.86h-3.86z"/><path class="cls-3" d="M356.08 202.87h3.86v3.86h-3.86zM363.58 202.87h3.86v3.86h-3.86zM371.08 202.87h3.86v3.86h-3.86zM382.33 202.87h3.86v3.86h-3.86z"/><path class="cls-3" d="M386.08 202.87h3.86v3.86h-3.86z"/><path class="cls-3" d="M389.83 202.87h3.86v3.86h-3.86z"/><path class="cls-3" d="M393.58 202.87h3.86v3.86h-3.86z"/><path class="cls-3" d="M397.33 202.87h3.86v3.86h-3.86zM404.83 202.87h3.86v3.86h-3.86z"/><path class="cls-3" d="M408.58 202.87h3.86v3.86h-3.86z"/><path class="cls-3" d="M412.33 202.87h3.86v3.86h-3.86zM337.33 206.62h3.86v3.86h-3.86zM344.83 206.62h3.86v3.86h-3.86z"/><path class="cls-3" d="M348.58 206.62h3.86v3.86h-3.86zM356.08 206.62h3.86v3.86h-3.86zM374.83 206.62h3.86v3.86h-3.86z"/><path class="cls-3" d="M378.58 206.62h3.86v3.86h-3.86z"/><path class="cls-3" d="M382.33 206.62h3.86v3.86h-3.86zM397.33 206.62h3.86v3.86h-3.86z"/><path class="cls-3" d="M401.08 206.62h3.86v3.86h-3.86z"/><path class="cls-3" d="M404.83 206.62h3.86v3.86h-3.86z"/><path class="cls-3" d="M408.58 206.62h3.86v3.86h-3.86z"/><path class="cls-3" d="M412.33 206.62h3.86v3.86h-3.86zM337.33 210.37h3.86v3.86h-3.86z"/><path class="cls-3" d="M341.08 210.37h3.86v3.86h-3.86z"/><path class="cls-3" d="M344.83 210.37h3.86v3.86h-3.86zM359.83 210.37h3.86v3.86h-3.86z"/><path class="cls-3" d="M363.58 210.37h3.86v3.86h-3.86z"/><path class="cls-3" d="M367.33 210.37h3.86v3.86h-3.86zM374.83 210.37h3.86v3.86h-3.86z"/><path class="cls-3" d="M378.58 210.37h3.86v3.86h-3.86z"/><path class="cls-3" d="M382.33 210.37h3.86v3.86h-3.86zM389.83 210.37h3.86v3.86h-3.86zM397.33 210.37h3.86v3.86h-3.86z"/><path class="cls-3" d="M401.08 210.37h3.86v3.86h-3.86z"/><path class="cls-3" d="M404.83 210.37h3.86v3.86h-3.86zM344.83 214.12h3.86v3.86h-3.86zM352.33 214.12h3.86v3.86h-3.86zM359.83 214.12h3.86v3.86h-3.86zM367.33 214.12h3.86v3.86h-3.86zM378.58 214.12h3.86v3.86h-3.86z"/><path class="cls-3" d="M382.33 214.12h3.86v3.86h-3.86zM397.33 214.12h3.86v3.86h-3.86zM412.33 214.12h3.86v3.86h-3.86zM337.33 217.87h3.86v3.86h-3.86z"/><path class="cls-3" d="M341.08 217.87h3.86v3.86h-3.86z"/><path class="cls-3" d="M344.83 217.87h3.86v3.86h-3.86z"/><path class="cls-3" d="M348.58 217.87h3.86v3.86h-3.86z"/><path class="cls-3" d="M352.33 217.87h3.86v3.86h-3.86z"/><path class="cls-3" d="M356.08 217.87h3.86v3.86h-3.86z"/><path class="cls-3" d="M359.83 217.87h3.86v3.86h-3.86zM371.08 217.87h3.86v3.86h-3.86zM382.33 217.87h3.86v3.86h-3.86z"/><path class="cls-3" d="M386.08 217.87h3.86v3.86h-3.86z"/><path class="cls-3" d="M389.83 217.87h3.86v3.86h-3.86z"/><path class="cls-3" d="M393.58 217.87h3.86v3.86h-3.86z"/><path class="cls-3" d="M397.33 217.87h3.86v3.86h-3.86zM404.83 217.87h3.86v3.86h-3.86zM412.33 217.87h3.86v3.86h-3.86zM337.33 221.62h3.86v3.86h-3.86zM344.83 221.62h3.86v3.86h-3.86z"/><path class="cls-3" d="M348.58 221.62h3.86v3.86h-3.86zM382.33 221.62h3.86v3.86h-3.86zM393.58 221.62h3.86v3.86h-3.86zM401.08 221.62h3.86v3.86h-3.86z"/><path class="cls-3" d="M404.83 221.62h3.86v3.86h-3.86z"/><path class="cls-3" d="M408.58 221.62h3.86v3.86h-3.86z"/><path class="cls-3" d="M412.33 221.62h3.86v3.86h-3.86zM337.33 225.37h3.86v3.86h-3.86z"/><path class="cls-3" d="M341.08 225.37h3.86v3.86h-3.86zM356.08 225.37h3.86v3.86h-3.86zM363.58 225.37h3.86v3.86h-3.86zM374.83 225.37h3.86v3.86h-3.86z"/><path class="cls-3" d="M378.58 225.37h3.86v3.86h-3.86z"/><path class="cls-3" d="M382.33 225.37h3.86v3.86h-3.86z"/><path class="cls-3" d="M386.08 225.37h3.86v3.86h-3.86z"/><path class="cls-3" d="M389.83 225.37h3.86v3.86h-3.86z"/><path class="cls-3" d="M393.58 225.37h3.86v3.86h-3.86z"/><path class="cls-3" d="M397.33 225.37h3.86v3.86h-3.86z"/><path class="cls-3" d="M401.08 225.37h3.86v3.86h-3.86z"/><path class="cls-3" d="M404.83 225.37h3.86v3.86h-3.86z"/><path class="cls-3" d="M408.58 225.37h3.86v3.86h-3.86zM337.33 229.12h3.86v3.86h-3.86zM344.83 229.12h3.86v3.86h-3.86z"/><path class="cls-3" d="M348.58 229.12h3.86v3.86h-3.86zM359.83 229.12h3.86v3.86h-3.86z"/><path class="cls-3" d="M363.58 229.12h3.86v3.86h-3.86zM374.83 229.12h3.86v3.86h-3.86zM382.33 229.12h3.86v3.86h-3.86zM389.83 229.12h3.86v3.86h-3.86z"/><path class="cls-3" d="M393.58 229.12h3.86v3.86h-3.86zM401.08 229.12h3.86v3.86h-3.86zM408.58 229.12h3.86v3.86h-3.86zM337.33 232.87h3.86v3.86h-3.86zM348.58 232.87h3.86v3.86h-3.86z"/><path class="cls-3" d="M352.33 232.87h3.86v3.86h-3.86z"/><path class="cls-3" d="M356.08 232.87h3.86v3.86h-3.86z"/><path class="cls-3" d="M359.83 232.87h3.86v3.86h-3.86z"/><path class="cls-3" d="M363.58 232.87h3.86v3.86h-3.86z"/><path class="cls-3" d="M367.33 232.87h3.86v3.86h-3.86z"/><path class="cls-3" d="M371.08 232.87h3.86v3.86h-3.86zM378.58 232.87h3.86v3.86h-3.86zM389.83 232.87h3.86v3.86h-3.86zM397.33 232.87h3.86v3.86h-3.86zM404.83 232.87h3.86v3.86h-3.86zM307.33 127.87v26.25h26.25v-26.25Zm22.5 22.5h-18.75v-18.75h18.75ZM389.83 127.87v26.25h26.25v-26.25Zm22.5 22.5h-18.75v-18.75h18.75ZM307.33 210.37v26.25h26.25v-26.25Zm22.5 22.5h-18.75v-18.75h18.75Z"/><path class="cls-3" d="M314.83 135.37h11.25v11.25h-11.25zM397.33 135.37h11.25v11.25h-11.25zM314.83 217.87h11.25v11.25h-11.25z"/><path d="M439.42 54.39V310.2a20.21 20.21 0 0 1-18.17 20.11 17.15 17.15 0 0 1-2 .11H304.31a20.21 20.21 0 0 1-20.21-20.22l135.12-276a20.2 20.2 0 0 1 20.2 20.19Z" style="mix-blend-mode:multiply;opacity:.23;fill:url(#linear-gradient-3)"/></g></g></svg>