<svg xmlns="http://www.w3.org/2000/svg" xmlns:xlink="http://www.w3.org/1999/xlink" viewBox="0 0 590 380"><defs><linearGradient id="linear-gradient" x1="100.21" y1="226.84" x2="497.75" y2="226.84" gradientUnits="userSpaceOnUse"><stop offset="0" stop-color="#fffb29" stop-opacity=".5"/><stop offset="1" stop-color="#fffb29"/></linearGradient><linearGradient id="linear-gradient-2" x1="397.09" y1="270.73" x2="327.61" y2="4.07" gradientUnits="userSpaceOnUse"><stop offset="0" stop-color="#ff471c"/><stop offset="1" stop-color="#fffb29"/></linearGradient><linearGradient id="linear-gradient-3" x1="383.46" y1="286.38" x2="348.48" y2="75.5" xlink:href="#linear-gradient-2"/><linearGradient id="linear-gradient-4" x1="286.77" y1="320.33" x2="189.09" y2="-54.61" gradientTransform="rotate(15.29 276.873 291.916)" xlink:href="#linear-gradient-2"/><linearGradient id="linear-gradient-5" x1="267.61" y1="342.34" x2="218.42" y2="45.83" gradientTransform="rotate(15.29 276.873 291.916)" xlink:href="#linear-gradient-2"/><linearGradient id="linear-gradient-6" x1="351.05" y1="326.67" x2="198.22" y2="132.62" gradientUnits="userSpaceOnUse"><stop offset="0" stop-color="#70151b"/><stop offset="1" stop-color="#a61d01"/></linearGradient><linearGradient id="linear-gradient-7" x1="259.67" y1="225.42" x2="174.75" y2="225.42" gradientUnits="userSpaceOnUse"><stop offset="0" stop-color="#ff471c" stop-opacity="0"/><stop offset="1" stop-color="#fffb29"/></linearGradient><linearGradient id="linear-gradient-8" x1="402.86" y1="268.98" x2="347.78" y2="204.17" xlink:href="#linear-gradient-6"/><linearGradient id="linear-gradient-9" x1="357.7" y1="263.61" x2="338.59" y2="190.25" xlink:href="#linear-gradient-2"/><linearGradient id="linear-gradient-10" x1="386.58" y1="225.27" x2="405.53" y2="225.27" gradientUnits="userSpaceOnUse"><stop offset="0" stop-color="#4f0008" stop-opacity="0"/><stop offset="1" stop-color="#4f0008"/></linearGradient><radialGradient id="radial-gradient" cx="308.75" cy="152.58" r="151.44" gradientUnits="userSpaceOnUse"><stop offset="0" stop-color="#fffb29"/><stop offset=".14" stop-color="#fffb29" stop-opacity=".82"/><stop offset=".38" stop-color="#fffb29" stop-opacity=".53"/><stop offset=".59" stop-color="#fffb29" stop-opacity=".3"/><stop offset=".77" stop-color="#fffb29" stop-opacity=".14"/><stop offset=".92" stop-color="#fffb29" stop-opacity=".04"/><stop offset="1" stop-color="#fffb29" stop-opacity="0"/></radialGradient><style>.cls-10{opacity:.3}.cls-5{fill:#ff471c}.cls-10{mix-blend-mode:lighten}.cls-11{fill:#fff}.cls-14{fill:none;stroke:#e3afaf;stroke-linecap:round;stroke-linejoin:round}</style></defs><g style="isolation:isolate"><g id="Layer_2" data-name="Layer 2"><path d="M465.16 271.93v53.49A22.17 22.17 0 0 1 443 347.59H122.39a22.18 22.18 0 0 1-22.18-22.17V128.27a22.18 22.18 0 0 1 22.18-22.18H443a22.17 22.17 0 0 1 22.17 22.18v93l30.76 21.91a4.36 4.36 0 0 1 0 7.12Z" style="fill:url(#linear-gradient);opacity:.3"/><rect x="193.68" y="141.26" width="211.85" height="168.02" rx="10" style="fill:#4f0008"/><circle cx="310.73" cy="151.64" r="151.64" style="fill:url(#radial-gradient)"/><circle class="cls-5" cx="360.78" cy="131.37" r="49.66"/><circle class="cls-5" cx="362.39" cy="132.98" r="49.66"/><path d="M410.44 131.37a49.66 49.66 0 0 1-92.9 24.42 48 48 0 0 1-2.87-6c-.53-1.32-1-2.66-1.42-4a49.77 49.77 0 0 1-2.13-14.43c0-1.64.08-3.25.24-4.86A49.67 49.67 0 0 1 355.93 82c1.6-.16 3.22-.24 4.85-.24a49.7 49.7 0 0 1 14.42 2.13c1.38.41 2.72.89 4 1.42a47.49 47.49 0 0 1 6 2.87 49.64 49.64 0 0 1 25.24 43.19Z" style="fill:url(#linear-gradient-2)"/><path class="cls-5" d="M386.43 123.77c1.13-7.38-4.33-11.47-11.92-14.16a.67.67 0 0 1-.43-.8l2.25-9a.68.68 0 0 0-.49-.82l-4.92-1.21a.67.67 0 0 0-.81.48l-2.18 8.74a.67.67 0 0 1-.8.49q-1.86-.42-3.72-.9a.67.67 0 0 1-.48-.81l2.18-8.78a.67.67 0 0 0-.49-.81l-4.92-1.22a.68.68 0 0 0-.82.49l-2.24 9a.66.66 0 0 1-.8.49l-3.33-.81V104l-8-2a.68.68 0 0 0-.82.49l-1.34 5.36a.67.67 0 0 0 .5.82c1.27.3 3.94 1 3.89 1 2.47.63 3 2.26 2.89 3.59a.5.5 0 0 1 0 .12l-7 28a2.28 2.28 0 0 1-2.88 1.47c.05.05-2.78-.69-4-1a.68.68 0 0 0-.79.39l-2.53 5.86a.67.67 0 0 0 .45.92l7.38 1.86c1.26.33 2.56.65 3.79 1a.66.66 0 0 1 .47.81l-2.3 9.1a.66.66 0 0 0 .49.81l4.92 1.22a.67.67 0 0 0 .81-.49l2.24-9a.68.68 0 0 1 .82-.49c1.26.33 2.46.66 3.68 1a.66.66 0 0 1 .5.81l-2.23 8.89a.65.65 0 0 0 .48.81l4.92 1.22a.67.67 0 0 0 .81-.49l2.26-9.06a.66.66 0 0 1 .77-.5c10.34 1.9 18.11.91 21.44-8.52 2.47-7.1.31-11.46-4.35-14.36a.67.67 0 0 1 .15-1.2c3.32-1.11 5.77-3.78 6.5-8.67Zm-14.3 20c-1.83 7.4-13.82 3.9-18.6 2.67a.68.68 0 0 1-.48-.82l3.14-12.43a.67.67 0 0 1 .8-.49c4.8 1.09 17.1 3.37 15.14 11.08Zm2-20.13c-1.7 6.67-11.49 3.82-15.53 2.73a.67.67 0 0 1-.47-.81l2.82-11.16a.67.67 0 0 1 .8-.49c4.02.96 14.07 2.82 12.37 9.74Z"/><path d="M385.14 122.83c1.13-7.38-4.33-11.47-11.92-14.17a.65.65 0 0 1-.43-.79l2.25-9a.67.67 0 0 0-.49-.81l-4.92-1.22a.67.67 0 0 0-.81.49l-2.18 8.67a.68.68 0 0 1-.8.49c-1.24-.29-2.48-.58-3.72-.9a.68.68 0 0 1-.48-.82l2.18-8.77a.67.67 0 0 0-.49-.81L358.41 94a.66.66 0 0 0-.81.49l-2.25 9a.68.68 0 0 1-.8.49l-3.33-.81v-.07l-8-1.95a.68.68 0 0 0-.82.49l-1.35 5.36a.66.66 0 0 0 .5.81c1.27.31 3.94 1 3.89 1 2.47.63 3 2.26 2.89 3.6a.5.5 0 0 1 0 .12l-7 28a2.28 2.28 0 0 1-2.88 1.48c.05.05-2.78-.69-4-1a.66.66 0 0 0-.78.38l-2.54 5.87a.66.66 0 0 0 .45.91l7.32 1.83 3.79 1a.66.66 0 0 1 .47.81l-2.3 9.09a.68.68 0 0 0 .49.82l4.92 1.22a.67.67 0 0 0 .81-.49l2.24-9a.66.66 0 0 1 .82-.48c1.26.33 2.46.66 3.69.95a.67.67 0 0 1 .49.82l-2.23 8.88a.66.66 0 0 0 .48.82l4.92 1.21a.67.67 0 0 0 .81-.49l2.26-9.06a.66.66 0 0 1 .77-.49c10.34 1.9 18.11.91 21.44-8.52 2.47-7.1.31-11.47-4.35-14.37a.67.67 0 0 1 .15-1.19c3.43-1.14 5.84-3.82 6.57-8.7Zm-14.3 20c-1.83 7.4-13.82 3.89-18.6 2.66a.67.67 0 0 1-.48-.81l3.14-12.44a.67.67 0 0 1 .8-.49c4.8 1.1 17.1 3.38 15.14 11.09Zm2-20.14c-1.7 6.67-11.49 3.82-15.53 2.73a.66.66 0 0 1-.47-.81l2.82-11.15a.67.67 0 0 1 .8-.49c4.02.95 14.07 2.82 12.37 9.73Z" style="fill:url(#linear-gradient-3)"/><circle class="cls-5" cx="281.35" cy="119.47" r="69.82"/><circle class="cls-5" cx="282.94" cy="122.26" r="69.82"/><path d="M348.7 137.89a69.82 69.82 0 0 1-135-1.34 66.71 66.71 0 0 1-1.7-9.15c-.23-2-.38-4-.43-6a69.6 69.6 0 0 1 2.43-20.34c.61-2.23 1.32-4.39 2.13-6.51a69.83 69.83 0 0 1 77-43.91c2.22.38 4.45.87 6.67 1.48a69.69 69.69 0 0 1 18.77 8.23q2.56 1.6 4.94 3.42a68.59 68.59 0 0 1 7 6.1 69.81 69.81 0 0 1 18.19 68.02Z" style="fill:url(#linear-gradient-4)"/><path class="cls-5" d="M319 118.68c4.27-9.6-1.63-17.17-10.92-23.64a.94.94 0 0 1-.29-1.23l6.4-11.4a1 1 0 0 0-.36-1.28l-6.22-3.48a1 1 0 0 0-1.29.36L300.1 89a1 1 0 0 1-1.27.37c-1.58-.85-3.15-1.71-4.71-2.6a1 1 0 0 1-.35-1.29L300 74.42a.93.93 0 0 0-.36-1.28l-6.22-3.48a1 1 0 0 0-1.28.36l-6.37 11.34a.94.94 0 0 1-1.28.36c-1.43-.78-2.85-1.57-4.21-2.33v-.09l-10.14-5.62a1 1 0 0 0-1.28.36l-3.8 6.78a.94.94 0 0 0 .36 1.29c1.61.88 5 2.75 4.92 2.79 3.1 1.77 3.22 4.18 2.58 5.95a.77.77 0 0 1-.07.16l-19.95 35.41a3.21 3.21 0 0 1-4.46.93c.05.08-3.51-2-5.05-2.85a.93.93 0 0 0-1.21.23l-5.61 7a.93.93 0 0 0 .27 1.41l9.32 5.26c1.58.91 3.23 1.84 4.78 2.74a1 1 0 0 1 .34 1.28l-6.5 11.48a1 1 0 0 0 .36 1.29l6.22 3.47a1 1 0 0 0 1.28-.36L259 147a1 1 0 0 1 1.3-.36c1.58.92 3.09 1.81 4.64 2.66a.94.94 0 0 1 .37 1.29L259 161.81a1 1 0 0 0 .36 1.29l6.22 3.47a.94.94 0 0 0 1.28-.36l6.42-11.46a.94.94 0 0 1 1.23-.38c13.32 6.41 24.22 7.95 32.24-3.61 6-8.71 4.67-15.43-.57-21.09a.94.94 0 0 1 .64-1.56c5.03-.36 9.34-3.11 12.18-9.43Zm-26.82 21.83c-5.23 9.36-20.18.16-26.21-3.28a1 1 0 0 1-.35-1.28l8.87-15.7a.94.94 0 0 1 1.26-.38c6.08 3.26 21.91 10.91 16.39 20.64Zm10.17-26.57c-4.78 8.42-17 .92-22.07-2a.94.94 0 0 1-.34-1.28l8-14.08a.94.94 0 0 1 1.27-.37c5.03 2.72 17.96 8.98 13.1 17.73Z"/><path d="M317.56 116.92c4.27-9.6-1.63-17.17-10.92-23.64a.94.94 0 0 1-.29-1.23l6.4-11.4a.94.94 0 0 0-.36-1.28l-6.22-3.48a1 1 0 0 0-1.29.36l-6.18 11a1 1 0 0 1-1.27.37c-1.58-.85-3.15-1.71-4.71-2.6a1 1 0 0 1-.35-1.29l6.21-11.09a.94.94 0 0 0-.37-1.28L292 67.9a1 1 0 0 0-1.28.36l-6.38 11.34a.94.94 0 0 1-1.28.36c-1.43-.78-2.85-1.56-4.21-2.33v-.09l-10.14-5.62a1 1 0 0 0-1.28.36l-3.8 6.78a.94.94 0 0 0 .36 1.29c1.62.88 5 2.75 4.92 2.8 3.1 1.77 3.23 4.17 2.59 5.94a.8.8 0 0 1-.08.16l-19.92 35.41a3.21 3.21 0 0 1-4.46.93c.05.09-3.51-2-5-2.85a.94.94 0 0 0-1.21.23l-5.61 7a.94.94 0 0 0 .27 1.41l9.32 5.26c1.58.91 3.23 1.84 4.78 2.74a1 1 0 0 1 .34 1.28l-6.5 11.48a1 1 0 0 0 .36 1.29l6.22 3.47a.93.93 0 0 0 1.28-.36l6.36-11.31a1 1 0 0 1 1.3-.36c1.58.92 3.09 1.81 4.64 2.66a.94.94 0 0 1 .37 1.29l-6.33 11.22a1 1 0 0 0 .36 1.29l6.22 3.47a.93.93 0 0 0 1.28-.36l6.37-11.44a.94.94 0 0 1 1.23-.38c13.32 6.41 24.22 7.95 32.24-3.6 6-8.72 4.67-15.44-.57-21.1a.94.94 0 0 1 .64-1.56c5.05-.36 9.36-3.09 12.16-9.44Zm-26.81 21.83c-5.24 9.36-20.19.16-26.22-3.28a.93.93 0 0 1-.34-1.28l8.86-15.7a.93.93 0 0 1 1.26-.37c6.12 3.25 21.95 10.88 16.44 20.63Zm10.16-26.57c-4.78 8.42-17 .92-22.07-2.05a.93.93 0 0 1-.34-1.28l7.95-14.08a1 1 0 0 1 1.27-.37c5.12 2.77 18.05 9.03 13.19 17.78Z" style="fill:url(#linear-gradient-5)"/><g class="cls-10"><path class="cls-11" d="m318.54 60.35-107 61.06a69.6 69.6 0 0 1 2.46-20.35c.61-2.23 1.32-4.39 2.13-6.51l77-43.91c2.22.38 4.45.87 6.67 1.48a69.69 69.69 0 0 1 18.74 8.23ZM330.52 69.87l-116.87 66.68a66.71 66.71 0 0 1-1.65-9.15l111.48-63.63a68.59 68.59 0 0 1 7.04 6.1Z"/></g><path class="cls-11" d="m237.52 93.91.55.07A24.89 24.89 0 0 0 216 115.21l-.14 1v-.08A24.89 24.89 0 0 0 193.75 94h-.07l.55-.07a24.87 24.87 0 0 0 21.61-21.85v-.28.28a24.87 24.87 0 0 0 21.68 21.83ZM340.33 60.32h.4a18.24 18.24 0 0 0-16.16 15.56l-.1.71v-.06a18.22 18.22 0 0 0-16.2-16.2h-.06.41a18.23 18.23 0 0 0 15.84-16v-.2.2a18.23 18.23 0 0 0 15.87 15.99Z"/><rect x="156.03" y="141.4" width="230.55" height="168.02" rx="10" style="fill:url(#linear-gradient-6)"/><path d="M271.25 309.43h-103.9A11.39 11.39 0 0 1 156 298V152.79a11.39 11.39 0 0 1 11.38-11.39h103.9" style="opacity:.2;fill:url(#linear-gradient-7)"/><path class="cls-14" d="M167.31 147.56h4"/><path d="M179.24 147.56h189.23c6.28 0 11.37 4.72 11.37 10.55v134.61c0 5.83-5.09 10.56-11.37 10.56H175.28" style="stroke-dasharray:7.93 7.93;fill:none;stroke:#e3afaf;stroke-linecap:round;stroke-linejoin:round"/><path class="cls-14" d="M171.31 303.28h-4"/><path d="M333.26 205.57h72.27v51.15h-72.27a10 10 0 0 1-10-10v-31.15a10 10 0 0 1 10-10Z" style="opacity:.5;fill:#4f0008"/><path d="M330.52 199.7h75v51.15h-75a10 10 0 0 1-10-10V209.7a10 10 0 0 1 10-10Z" style="fill:url(#linear-gradient-8)"/><path d="M361.37 225.28a13.66 13.66 0 0 1-24.11 8.79 13.43 13.43 0 0 1-1.34-1.88c0-.06-.08-.13-.11-.2a11.53 11.53 0 0 1-.56-1.11c-.08-.17-.16-.36-.23-.53-.14-.36-.27-.74-.38-1.11a13.32 13.32 0 0 1-.6-4v-1.35a13.67 13.67 0 0 1 12.27-12.25h.43a8.9 8.9 0 0 1 .9 0 14.06 14.06 0 0 1 4 .58c.38.12.74.25 1.11.4l.52.23a11.7 11.7 0 0 1 1.12.56l.19.11a12.49 12.49 0 0 1 1.88 1.33 13.65 13.65 0 0 1 4.91 10.43Z" style="fill:url(#linear-gradient-9)"/><g class="cls-10"><path class="cls-11" d="m353.31 212.82-18.06 18.06c-.08-.17-.16-.36-.23-.53-.14-.36-.27-.74-.38-1.11a13.32 13.32 0 0 1-.6-4v-.92l12.73-12.71a8.9 8.9 0 0 1 .9 0 14.06 14.06 0 0 1 4 .58c.38.12.74.25 1.11.4ZM356.5 214.82l-19.24 19.25a13.43 13.43 0 0 1-1.34-1.88l18.7-18.7a12.49 12.49 0 0 1 1.88 1.33Z"/></g><path style="fill:url(#linear-gradient-10);opacity:.5" d="M386.58 199.7h18.95v51.15h-18.95z"/></g></g></svg>