<svg width="120" height="120" fill="none" xmlns="http://www.w3.org/2000/svg"><g clip-path="url(#a)"><path d="M99.6 75.725c6.006 0 11.484 2.244 15.708 5.94 2.64-6.732 4.092-14.058 4.092-21.78 0-32.802-26.598-59.4-59.4-59.4S.6 27.083.6 59.885s26.598 59.4 59.4 59.4c7.656 0 15.048-1.452 21.78-4.092a23.632 23.632 0 0 1-5.94-15.708c0-13.134 10.626-23.76 23.76-23.76Z" fill="#26A17B"/><path d="M67.326 51.965v-8.844h20.196V29.657H32.544v13.464H52.74v8.844c-16.434.726-28.776 4.026-28.776 7.92 0 3.895 12.342 7.128 28.776 7.92V96.12h14.586V67.805c16.368-.726 28.71-4.026 28.71-7.92 0-3.893-12.276-7.127-28.71-7.92Zm0 13.398c-.396 0-2.508.133-7.26.133-3.762 0-6.402-.132-7.326-.132-14.52-.66-25.344-3.169-25.344-6.205 0-3.035 10.824-5.544 25.344-6.137v9.834c.924.066 3.696.197 7.392.197 4.488 0 6.798-.197 7.194-.197v-9.834c14.454.66 25.278 3.168 25.278 6.203 0 2.97-10.758 5.479-25.278 6.139Z" fill="#fff"/><path d="M99.6 119.285c10.956 0 19.8-8.844 19.8-19.8 0-10.956-8.844-19.8-19.8-19.8-10.956 0-19.8 8.844-19.8 19.8 0 10.956 8.844 19.8 19.8 19.8Z" fill="#EF0027"/><path d="M111.216 95.921c-1.122-.99-2.706-2.574-4.026-3.63l-.066-.066c-.132-.066-.264-.198-.396-.198-3.102-.528-17.556-3.168-17.82-3.102-.066 0-.132.066-.198.066l-.066.066c-.066.066-.132.198-.198.33v.396c1.65 4.356 8.052 18.546 9.306 21.912.066.198.198.66.462.66h.066c.132 0 .792-.792.792-.792s11.022-12.804 12.144-14.19c.132-.198.264-.33.396-.528 0-.132 0-.33-.066-.462a2.006 2.006 0 0 0-.33-.462Zm-9.372 1.518 4.686-3.762 2.772 2.442-7.458 1.32Zm-1.848-.264-8.118-6.336 13.134 2.31-5.016 4.026Zm.726 1.65 8.316-1.254-9.504 10.956 1.188-9.702Zm-9.9-7.392 8.514 6.93-1.254 10.164-7.26-17.094Z" fill="#fff"/></g><defs><clipPath id="a"><path fill="#fff" transform="translate(.6 .485)" d="M0 0h118.8v118.8H0z"/></clipPath></defs></svg>