<svg width="120" height="120" fill="none" xmlns="http://www.w3.org/2000/svg"><g clip-path="url(#a)"><path d="M99.6 119.285c10.935 0 19.8-8.864 19.8-19.8 0-10.935-8.865-19.8-19.8-19.8s-19.8 8.865-19.8 19.8c0 10.936 8.865 19.8 19.8 19.8Z" fill="#627EEA"/><path d="M100.194 84.635v10.956l9.306 4.158-9.306-15.114Z" fill="#fff" fill-opacity=".602"/><path d="m100.194 84.635-9.24 15.114 9.24-4.158V84.635Z" fill="#fff"/><path d="M100.194 106.877v7.458l9.306-12.87-9.306 5.412Z" fill="#fff" fill-opacity=".602"/><path d="M100.194 114.335v-7.458l-9.24-5.412 9.24 12.87Z" fill="#fff"/><path d="m100.194 105.161 9.306-5.412-9.306-4.158v9.57Z" fill="#fff" fill-opacity=".2"/><path d="m90.954 99.75 9.24 5.411v-9.57l-9.24 4.158Z" fill="#fff" fill-opacity=".602"/><path d="M99.6 75.725c6.006 0 11.484 2.244 15.708 5.94 2.64-6.732 4.092-14.058 4.092-21.78 0-32.802-26.598-59.4-59.4-59.4S.6 27.083.6 59.885s26.598 59.4 59.4 59.4c7.656 0 15.048-1.452 21.78-4.092a23.632 23.632 0 0 1-5.94-15.708c0-13.134 10.626-23.76 23.76-23.76Z" fill="#26A17B"/><path d="M67.326 51.965v-8.844h20.196V29.657H32.544v13.464H52.74v8.844c-16.434.726-28.776 4.026-28.776 7.92 0 3.895 12.342 7.128 28.776 7.92V96.12h14.586V67.805c16.368-.726 28.71-4.026 28.71-7.92 0-3.893-12.276-7.127-28.71-7.92Zm0 13.398c-.396 0-2.508.133-7.26.133-3.762 0-6.402-.132-7.326-.132-14.52-.66-25.344-3.169-25.344-6.205 0-3.035 10.824-5.544 25.344-6.137v9.834c.924.066 3.696.197 7.392.197 4.488 0 6.798-.197 7.194-.197v-9.834c14.454.66 25.278 3.168 25.278 6.203 0 2.97-10.758 5.479-25.278 6.139Z" fill="#fff"/></g><defs><clipPath id="a"><path fill="#fff" transform="translate(.6 .485)" d="M0 0h118.8v118.8H0z"/></clipPath></defs></svg>